<?xml version="1.0" encoding="UTF-8" standalone="no"?><!DOCTYPE svg PUBLIC "-//W3C//DTD SVG 1.1//EN" "http://www.w3.org/Graphics/SVG/1.1/DTD/svg11.dtd"><svg width="100%" height="100%" viewBox="0 0 1744 1416" version="1.1" xmlns="http://www.w3.org/2000/svg" xmlns:xlink="http://www.w3.org/1999/xlink" xml:space="preserve" xmlns:serif="http://www.serif.com/" style="fill-rule:evenodd;clip-rule:evenodd;stroke-linejoin:round;stroke-miterlimit:2;"><path d="M995.054,638.333c-14.046,1.909 -28.096,3.821 -44.508,5.992l-3.042,0.404l-2.779,-1.416c-2.771,-1.417 -229.704,33.125 -299.829,37.929c-61.454,4.212 -53.117,-9.321 -70.921,-10.1l-4.654,-0.204c-9.867,1.916 -93.1,17.887 -75.042,-12.755l-2.212,0.413c-49.225,7.596 12.783,-106.033 15.933,-107.092c196.454,-66.129 418.688,-100.383 624.679,-119.637c41.367,-3.863 206.629,-19.925 219.842,-6.104l2.733,7.616c-0.829,10.95 -2.216,14.842 -9.746,19.675c-16.866,10.825 -19.233,82.604 -10.279,96.538c5.013,7.791 9.75,14.454 12.221,16.379l6.121,4.771l-3.154,7.1c-10.304,23.191 -58.146,25.521 -86.113,26.883c-4.179,0.204 -7.821,0.379 -11.425,0.671c-28.921,2.317 -61.987,10.142 -88.491,12.704l-19.163,1.842c-50.421,4.829 -100.108,11.583 -150.171,18.391" style="fill:#cb1d12;"/><path d="M1256.79,590.071c23.45,-1.142 63.563,-3.096 68.858,-15.013l0.642,-1.446l0.958,-1.091c3.171,-3.617 77.709,-157.683 95.521,-205.175c14.142,-37.717 27.854,-75.963 33.584,-94.575c-95.396,-3.259 -201.325,2.254 -307.438,12.554c-110.679,10.742 -221.754,26.738 -321.354,43.433c-58.163,9.75 -112.067,21.667 -168.213,34.075c-20.6,4.55 -2.758,0.659 -25.17,5.584c-4.863,1.071 -10.43,2.129 -15.875,3.166c-23.538,4.484 -44.875,8.542 -60.8,28.38c-10.159,12.654 -19.363,31.312 -28.08,48.991c-4.237,8.588 -64.791,125.104 -68.833,132.459c-26.679,48.504 -48.337,106.283 -67.971,158.654l-1.379,3.671c-16.075,42.862 -31.992,87.529 -47.158,132.579c-14.438,42.896 -28.179,86.129 -40.709,128.471c-2.508,8.475 -4.22,16.766 -5.912,24.991c-1.525,7.396 -3.038,14.734 -5.138,22.392l0.025,0.008l-0.766,2.838c-5.317,19.75 -9.975,37.054 -37.638,30.004l-5.421,-1.379l-1.641,-5.413c-6.575,-21.629 2.337,-46.729 10.333,-69.241c2.55,-7.18 5,-14.071 6.617,-19.913c6.362,-22.908 12.862,-44.579 19.337,-66.171l4.796,-16.004c7.808,-26.167 16.021,-53.171 24.7,-81.167c8.354,-26.954 16.888,-53.929 25.625,-80.92c9.013,-27.834 18.588,-52.33 29.367,-76.171c10.796,-23.871 22.804,-47.121 36.675,-72.425l4.637,-8.442c11.196,-20.367 77.867,-147.146 87.842,-168.775c35.279,-76.508 44.596,-78.304 104.154,-89.775c7.6,-1.463 16.075,-3.096 24.729,-4.908l87.704,-18.371c68.696,-14.371 172.955,-30.025 277.246,-42.959c109.559,-13.583 219.579,-24.212 288.738,-27.216c18.787,-0.817 38.058,-1.246 57.329,-1.667c15.062,-0.329 30.129,-0.662 45.633,-1.221c14.517,-0.516 30.159,-1.837 45.734,-3.146c18.025,-1.52 35.97,-3.033 54.425,-3.329c28.629,-0.458 37.987,11.079 38.25,27.554c0.204,12.567 -6.405,26.946 -12.438,40.08c-1.125,2.454 -2.242,4.883 -3.9,8.716c-10.121,23.425 -21.154,51.079 -31.396,78.759c-9.616,25.983 -75.012,160.287 -81.937,183.183c-1.475,4.875 -2.467,8.679 -3.454,12.462c-2.546,9.775 -5.071,19.459 -9.684,29.288c-5.616,11.967 -42.471,14.179 -62.183,16.3l-161.675,17.362l-3.979,0.384c-86.584,8.229 -197.529,23.783 -309.621,42.5c-115.621,19.308 -232.288,41.971 -324.488,63.412c-4.712,1.092 -11.783,3.471 -19.741,6.142c-24.163,8.117 -55.592,18.671 -70.038,9.258l-2.516,-1.641l-1.192,-2.692c-8.846,-20.004 4.112,-31.963 20.896,-39.383c9.612,-4.25 20.4,-6.755 27.4,-8.375l0.733,-0.167c9.758,-2.267 20.646,-4.742 32.808,-7.442c11.738,-2.608 22.75,-5.008 32.917,-7.15c44.163,-9.316 90.121,-17.946 135.958,-25.958c44.621,-7.8 91.309,-15.367 136.642,-22.517c13.071,-2.062 29.325,-4.929 45.754,-7.825c30.988,-5.466 62.625,-11.05 92.625,-14.129c13.288,-1.754 28.754,-3.862 44.159,-5.954c50.095,-6.808 99.812,-13.571 150.95,-18.467l19.162,-1.846c28.179,-2.725 56.342,-5.445 82.229,-7.52c2.634,-0.213 7.025,-0.425 12.046,-0.671"/><path d="M1295.68,801.385c-0.083,2.933 0.629,6.808 -0.904,10.833l-87.238,228.892c-1.596,4.187 -3.225,6.875 -3.833,8.233c-0.525,1.162 -1.508,2.362 -3.104,3.633c-1.534,1.217 -3.309,2.371 -5.375,3.325c-2.009,1.025 -4.067,1.809 -6.246,2.409c-2.238,0.595 -4.108,0.845 -5.788,0.8c-3.475,-0.1 -6.812,-0.971 -10.004,-2.684c-3.2,-1.65 -6.191,-3.954 -8.996,-6.796c-2.737,-2.895 -5.337,-6.329 -7.687,-10.237c-2.35,-3.967 -4.392,-8.283 -6.117,-13.013l-38.129,-101.654c-2.617,5.571 -5.675,11.904 -9.233,19.004c-3.563,7.1 -7.25,14.38 -11.179,21.834c-3.871,7.45 -7.796,14.775 -11.663,22.054c-3.925,7.271 -7.529,13.892 -10.875,19.737c-9.358,16.784 -18.104,31.296 -26.192,43.609l0.005,-0.175c-8.667,13.675 -15.759,20.441 -21.092,20.287c-6.958,-0.191 -12.596,-2.512 -16.971,-7.021c-4.371,-4.562 -8.046,-10.545 -11.012,-18.008c-2.971,-7.467 -5.488,-16 -7.625,-25.542c-2.13,-9.541 -4.492,-19.45 -6.967,-29.725c-8.138,-32.812 -16.367,-73.012 -24.75,-120.595c-0.208,-1.088 -0.8,-3.505 -1.717,-7.25c-0.975,-3.809 -2.096,-8.642 -3.491,-14.505l-0.005,0.184c-1.562,-6.288 -2.737,-11.6 -3.395,-15.938c-0.721,-4.341 -1.038,-7.891 -0.963,-10.591c0.054,-1.98 0.596,-4.067 1.675,-6.196c1.083,-2.129 2.458,-4.071 4.183,-5.759c1.788,-1.691 3.813,-3.137 6.121,-4.212c2.313,-1.133 4.784,-1.667 7.363,-1.592c2.7,0.075 5.312,1.171 7.954,3.225c2.642,2.05 5.196,5.188 7.658,9.4c4.35,7.379 7.784,15.521 10.229,24.534c0.817,2.958 1.788,6.945 2.725,12.016c0.996,5.067 2.142,11.279 3.555,18.584c1.354,7.295 2.979,15.804 4.866,25.52c1.888,9.717 4.154,20.759 6.75,33.138c2.371,11.704 4.363,21.962 5.971,30.771c1.613,8.871 3.079,16.591 4.271,23.166c1.196,6.575 2.3,12.184 3.25,16.717c0.892,4.525 1.867,8.333 2.8,11.421c6.158,-9.796 11.821,-19.113 16.987,-27.85c5.167,-8.733 9.771,-16.829 13.888,-24.213c4.046,-7.387 7.654,-14.012 10.7,-19.925c3.108,-5.916 5.646,-10.825 7.675,-14.725c3.175,-6.27 6.554,-13.316 10.079,-21.262c3.463,-7.942 7.988,-17.3 13.458,-28.188c0.696,-1.362 1.755,-2.766 3.113,-4.112c1.304,-1.404 2.833,-2.621 4.667,-3.65c1.77,-1.092 3.712,-1.938 5.77,-2.6c2.059,-0.6 4.109,-0.9 6.088,-0.846c3.417,0.096 6.842,2.054 10.392,5.996c3.495,3.875 6.87,9.612 10.079,17.083c0.283,0.788 1.066,2.792 2.179,5.946c1.167,3.15 2.446,6.904 4.004,11.271c1.496,4.362 3.158,9.092 4.942,14.179c1.771,5.096 3.558,10.004 5.225,14.733c1.662,4.788 3.225,9.034 4.554,12.913c1.337,3.817 2.392,6.725 3.183,8.612c6.104,15.534 10.854,27.85 14.259,37.067c3.404,9.154 6.054,15.171 8.133,18.054c18.383,-57.337 68.292,-164.525 72.679,-219.104c0.092,-1.179 0.767,-2.642 1.862,-4.387c1.084,-1.721 2.567,-3.359 4.4,-4.975c1.775,-1.559 3.805,-2.896 5.996,-4.034c2.192,-1.137 4.367,-1.616 6.646,-1.554c8.396,0.238 13.863,3.475 16.775,9.596c2.292,4.812 3.575,9.462 3.442,14.142m-827.604,203.87c1.583,-5.116 3.387,-11.666 5.412,-19.654c2.025,-7.983 4.188,-16.621 6.429,-25.921c2.246,-9.304 4.559,-19.02 6.821,-29.154c2.267,-10.137 4.346,-20.041 6.296,-29.65c1.892,-9.608 3.583,-18.562 5.021,-26.925c1.496,-8.358 2.533,-15.408 3.179,-21.271l0.271,-9.654c0.058,-2.1 0.433,-4.671 1.175,-7.65c0.741,-2.921 2.021,-5.766 3.962,-8.471c1.875,-2.708 4.463,-4.979 7.809,-6.741c3.35,-1.767 7.695,-2.604 13.091,-2.45c4.317,0.121 7.829,1.054 10.542,2.754c2.717,1.754 4.929,4.1 6.762,7.15c1.78,3.054 3.238,6.633 4.438,10.867c1.137,4.175 2.387,8.891 3.625,14.087c1.183,4.833 3.233,10.833 6.212,17.996c2.921,7.167 6.538,15.067 10.792,23.771c4.321,8.7 9.158,17.9 14.529,27.654c5.425,9.75 11.15,19.575 17.229,29.529c6.025,9.892 12.292,19.671 18.742,29.333c6.508,9.667 12.913,18.788 19.392,27.25c1.675,-6.133 3.362,-12.75 5,-19.725c1.691,-6.97 3.275,-14.008 4.85,-21.104c1.525,-7.1 3.041,-14.075 4.433,-20.879c1.454,-6.862 2.713,-13.187 3.896,-18.975c1.125,-5.85 2.167,-11.042 3.075,-15.575c0.85,-4.542 1.608,-8.058 2.154,-10.504c1.892,-9.546 3.629,-17.9 5.15,-25.183c1.588,-7.213 2.854,-13.959 3.933,-20.23c1.075,-6.329 1.909,-12.487 2.559,-18.591c0.596,-6.104 1.025,-12.754 1.229,-20.013c0.054,-1.854 0.287,-3.887 0.712,-6.096c0.421,-2.27 0.963,-4.416 1.68,-6.491c0.72,-2.084 1.554,-4.046 2.625,-5.871c1.075,-1.896 2.195,-3.296 3.366,-4.346c2.154,-1.921 4.175,-3.367 5.946,-4.396c1.767,-0.971 3.467,-1.7 5.038,-2.137c1.633,-0.434 3.262,-0.688 4.883,-0.763c1.621,-0.075 3.479,-0.079 5.462,-0.025c4.196,0.117 7.467,1.229 9.809,3.217c2.346,1.983 4.133,4.496 5.25,7.583c1.175,3.1 1.8,6.417 2,10.025c0.196,3.542 0.279,7.029 0.179,10.446c-0.029,1.079 -0.317,2.988 -0.879,5.796c-0.559,2.804 -1.188,5.908 -1.946,9.425c-0.758,3.521 -1.579,7.037 -2.517,10.671c-0.887,3.579 -1.754,6.733 -2.546,9.412c-5.441,18.45 -10.195,35.963 -14.204,52.534c-4.062,16.504 -7.558,32.008 -10.608,46.504c-3.05,14.558 -5.65,27.991 -7.854,40.412c-2.154,12.417 -4.034,23.709 -5.579,33.867c-0.163,1.554 -0.384,2.933 -0.596,4.183c-0.217,1.313 -0.375,2.75 -0.488,4.309c-0.041,1.62 -0.154,3.416 -0.275,5.57c-0.116,2.1 -0.25,4.738 -0.337,7.859c-0.171,6.112 -1.267,10.825 -3.275,14.066c-2.075,3.305 -4.542,5.696 -7.409,7.175c-2.92,1.538 -6.004,2.35 -9.254,2.559c-3.183,0.208 -6.062,0.25 -8.521,0.183c-5.041,-0.142 -9.025,-1.333 -12.025,-3.579c-2.995,-2.246 -5.729,-5.383 -8.258,-9.354c-2.525,-4.038 -5.158,-8.729 -7.879,-14.209c-2.729,-5.475 -6.4,-11.462 -11.017,-17.895c-12.575,-18.175 -25.354,-37.559 -38.275,-58.146c-12.862,-20.588 -25.958,-43.575 -39.166,-69.038c-2.513,10.379 -4.921,21.229 -7.096,32.571c-2.184,11.4 -4.238,22.625 -6.109,33.671c-1.937,11.112 -3.616,21.746 -5.162,31.904c-1.483,10.167 -2.879,19.242 -4.188,27.304c-0.083,3.004 -0.358,6.354 -0.879,10c-0.521,3.588 -1.1,6.996 -1.671,10.217c-0.629,3.225 -1.25,5.967 -1.854,8.287c-0.541,2.33 -1.004,3.813 -1.262,4.346c-0.638,1.425 -1.646,3.134 -3.021,5.196c-1.442,2.058 -3.058,4.058 -4.913,5.921c-1.85,1.929 -3.995,3.492 -6.316,4.75c-2.313,1.312 -4.671,1.904 -7.134,1.833c-4.612,-0.129 -8.254,-0.891 -11.037,-2.225c-2.779,-1.404 -4.946,-3.321 -6.496,-5.829c-1.612,-2.5 -2.604,-5.592 -3.1,-9.329c-0.496,-3.675 -0.675,-7.933 -0.537,-12.733c0.054,-1.98 0.366,-4.613 0.875,-7.78c0.454,-3.229 1.154,-6.75 1.92,-10.625c0.825,-3.82 1.78,-7.754 2.85,-11.804c1.017,-3.991 2.08,-7.741 3.08,-11.196m403.666,-155.15c-0.046,1.617 -0.429,4.492 -1.204,8.667c-0.775,4.121 -2.479,9.233 -5.237,15.396c-2.175,4.979 -3.855,9.192 -5.15,12.7c-1.242,3.442 -2.034,6.062 -2.321,7.854c-2.475,13.254 -4.921,27.588 -7.275,42.825c-2.346,15.3 -4.971,31.908 -7.813,49.713c-0.679,4.9 -1.487,10.037 -2.237,15.354c-0.809,5.321 -1.488,10.283 -2.1,14.946c-0.613,4.666 -1.084,8.791 -1.488,12.383c-0.4,3.525 -0.65,5.983 -0.683,7.237c-0.025,0.963 0.183,2.109 0.621,3.505c0.441,1.329 0.941,2.725 1.446,4.116c0.554,1.459 1.058,2.792 1.504,4.125c0.441,1.271 0.591,2.417 0.566,3.317c-0.075,2.7 -0.933,5.375 -2.683,8.025c-1.7,2.654 -4.471,5.217 -8.262,7.696c-3.121,2.129 -6.225,3.721 -9.313,4.712c-3.029,1.054 -6.108,1.629 -9.175,1.788c-5.633,-0.163 -9.912,-1.667 -12.95,-4.571c-3.042,-2.904 -5.225,-6.329 -6.558,-10.208c-1.388,-3.938 -2.113,-7.98 -2.234,-12.184c-0.12,-4.266 -0.141,-7.746 -0.066,-10.566c0.162,-5.634 0.487,-10.967 0.933,-16.055c0.383,-5.087 1.004,-10.112 1.683,-15.012c1.184,-7.892 2.825,-17.208 4.863,-27.771c2.037,-10.629 4.217,-21.908 6.592,-33.783c0.354,-1.85 1.037,-4.829 1.87,-8.888c0.896,-4.116 1.925,-8.771 3.038,-14.075c1.171,-5.308 2.408,-10.916 3.65,-16.762c1.304,-5.904 2.546,-11.513 3.717,-16.875c1.229,-5.371 2.266,-10.142 3.225,-14.438c0.962,-4.233 1.65,-7.396 2.066,-9.483c0.775,-3.879 1.396,-6.858 1.813,-8.95c0.421,-2.088 0.837,-4.058 1.183,-5.85c0.413,-1.783 0.892,-3.813 1.433,-6.017c0.538,-2.204 1.23,-5.308 2.18,-9.246l-0.188,0.359c0.292,-1.909 1.071,-3.929 2.275,-6.175c1.263,-2.309 2.763,-4.425 4.5,-6.417c1.733,-1.992 3.758,-3.612 5.954,-4.933c2.2,-1.259 4.375,-1.917 6.475,-1.863c4.921,0.142 9.021,1.454 12.375,3.834c3.3,2.375 5.979,5.208 7.921,8.562c1.95,3.296 3.35,6.879 4.088,10.558c0.791,3.742 1.12,6.992 1.041,9.817l-0.075,2.633Z" style="fill-rule:nonzero;"/><rect x="0" y="0" width="1743.66" height="1415.2" style="fill:none;"/></svg>