<?xml version="1.0" encoding="UTF-8" standalone="no"?><!DOCTYPE svg PUBLIC "-//W3C//DTD SVG 1.1//EN" "http://www.w3.org/Graphics/SVG/1.1/DTD/svg11.dtd"><svg width="100%" height="100%" viewBox="0 0 3508 2481" version="1.1" xmlns="http://www.w3.org/2000/svg" xmlns:xlink="http://www.w3.org/1999/xlink" xml:space="preserve" xmlns:serif="http://www.serif.com/" style="fill-rule:evenodd;clip-rule:evenodd;stroke-linejoin:round;stroke-miterlimit:2;"><path d="M1084.7,1146.6c-14.046,1.908 -28.096,3.821 -44.508,5.992l-3.042,0.404l-2.779,-1.417c-2.771,-1.416 -229.704,33.125 -299.829,37.929c-61.455,4.213 -53.117,-9.32 -70.921,-10.1l-4.654,-0.204c-9.867,1.917 -93.1,17.888 -75.042,-12.754l-2.213,0.412c-49.225,7.596 12.784,-106.033 15.934,-107.091c196.454,-66.129 418.687,-100.384 624.679,-119.638c41.367,-3.862 206.629,-19.925 219.842,-6.104l2.733,7.617c-0.829,10.95 -2.217,14.841 -9.746,19.675c-16.867,10.825 -19.233,82.604 -10.279,96.537c5.012,7.792 9.75,14.455 12.221,16.38l6.121,4.77l-3.155,7.1c-10.304,23.192 -58.145,25.521 -86.112,26.884c-4.179,0.204 -7.821,0.379 -11.425,0.67c-28.921,2.317 -61.988,10.142 -88.492,12.705l-19.162,1.841c-50.421,4.83 -100.109,11.584 -150.171,18.392" style="fill:#cb1d12;"/><path d="M1346.43,1098.34c23.45,-1.142 63.562,-3.096 68.858,-15.013l0.642,-1.446l0.958,-1.091c3.171,-3.617 77.708,-157.684 95.521,-205.176c14.142,-37.716 27.854,-75.962 33.583,-94.574c-95.396,-3.259 -201.325,2.254 -307.437,12.554c-110.679,10.741 -221.754,26.737 -321.354,43.433c-58.163,9.75 -112.067,21.667 -168.213,34.075c-20.6,4.55 -2.758,0.658 -25.171,5.583c-4.862,1.071 -10.429,2.13 -15.875,3.167c-23.537,4.483 -44.875,8.542 -60.8,28.379c-10.158,12.654 -19.362,31.313 -28.079,48.992c-4.237,8.587 -64.792,125.104 -68.833,132.458c-26.679,48.504 -48.338,106.284 -67.971,158.654l-1.379,3.671c-16.075,42.863 -31.992,87.529 -47.159,132.579c-14.437,42.896 -28.179,86.129 -40.708,128.471c-2.508,8.475 -4.221,16.767 -5.912,24.992c-1.525,7.396 -3.038,14.733 -5.138,22.391l0.025,0.009l-0.767,2.837c-5.316,19.75 -9.975,37.054 -37.637,30.005l-5.421,-1.38l-1.642,-5.412c-6.575,-21.629 2.338,-46.729 10.334,-69.242c2.55,-7.179 5,-14.071 6.616,-19.912c6.363,-22.909 12.863,-44.58 19.338,-66.171l4.796,-16.004c7.808,-26.167 16.021,-53.171 24.7,-81.167c8.354,-26.954 16.887,-53.929 25.625,-80.921c9.012,-27.833 18.587,-52.329 29.366,-76.171c10.796,-23.871 22.805,-47.121 36.675,-72.425l4.638,-8.441c11.196,-20.367 77.867,-147.146 87.842,-168.775c35.279,-76.509 44.595,-78.305 104.154,-89.775c7.6,-1.463 16.075,-3.096 24.729,-4.909l87.704,-18.371c68.696,-14.37 172.954,-30.025 277.246,-42.958c109.558,-13.583 219.579,-24.212 288.737,-27.217c18.788,-0.816 38.059,-1.245 57.33,-1.666c15.062,-0.329 30.129,-0.663 45.633,-1.221c14.517,-0.517 30.158,-1.838 45.733,-3.146c18.025,-1.521 35.971,-3.033 54.425,-3.329c28.629,-0.458 37.988,11.079 38.25,27.554c0.204,12.567 -6.404,26.946 -12.437,40.079c-1.125,2.454 -2.242,4.884 -3.9,8.717c-10.121,23.425 -21.154,51.079 -31.396,78.758c-9.617,25.984 -75.013,160.288 -81.938,183.184c-1.475,4.875 -2.466,8.679 -3.454,12.462c-2.546,9.775 -5.071,19.458 -9.683,29.288c-5.617,11.966 -42.471,14.179 -62.183,16.3l-161.675,17.362l-3.98,0.383c-86.583,8.23 -197.529,23.784 -309.62,42.5c-115.621,19.309 -232.288,41.971 -324.488,63.413c-4.712,1.092 -11.783,3.471 -19.742,6.142c-24.162,8.116 -55.591,18.67 -70.037,9.258l-2.517,-1.642l-1.191,-2.691c-8.846,-20.005 4.112,-31.963 20.895,-39.384c9.613,-4.25 20.4,-6.754 27.4,-8.375l0.734,-0.166c9.758,-2.267 20.646,-4.742 32.808,-7.442c11.738,-2.608 22.75,-5.008 32.917,-7.15c44.162,-9.317 90.121,-17.946 135.958,-25.958c44.621,-7.8 91.308,-15.367 136.642,-22.517c13.071,-2.063 29.325,-4.929 45.754,-7.825c30.987,-5.467 62.625,-11.05 92.625,-14.129c13.287,-1.754 28.754,-3.863 44.158,-5.954c50.096,-6.809 99.813,-13.571 150.95,-18.467l19.163,-1.846c28.179,-2.725 56.341,-5.446 82.229,-7.521c2.633,-0.212 7.025,-0.425 12.046,-0.671"/><path d="M1385.32,1309.65c-0.084,2.934 0.629,6.809 -0.905,10.834l-87.237,228.891c-1.596,4.188 -3.225,6.875 -3.833,8.234c-0.525,1.162 -1.509,2.362 -3.105,3.633c-1.533,1.217 -3.308,2.371 -5.375,3.325c-2.008,1.025 -4.066,1.808 -6.245,2.408c-2.238,0.596 -4.109,0.846 -5.788,0.8c-3.475,-0.1 -6.813,-0.971 -10.004,-2.683c-3.2,-1.65 -6.192,-3.954 -8.996,-6.796c-2.737,-2.896 -5.338,-6.329 -7.688,-10.237c-2.35,-3.967 -4.391,-8.284 -6.116,-13.013l-38.129,-101.654c-2.617,5.571 -5.675,11.904 -9.234,19.004c-3.562,7.1 -7.25,14.379 -11.179,21.833c-3.871,7.45 -7.796,14.775 -11.662,22.055c-3.925,7.27 -7.53,13.891 -10.875,19.737c-9.359,16.783 -18.105,31.296 -26.192,43.608l0.004,-0.175c-8.667,13.675 -15.758,20.442 -21.091,20.288c-6.959,-0.192 -12.596,-2.513 -16.971,-7.021c-4.371,-4.562 -8.046,-10.546 -11.013,-18.008c-2.971,-7.467 -5.487,-16 -7.625,-25.542c-2.129,-9.542 -4.492,-19.45 -6.967,-29.725c-8.137,-32.812 -16.366,-73.012 -24.75,-120.596c-0.208,-1.087 -0.8,-3.504 -1.716,-7.25c-0.975,-3.808 -2.096,-8.641 -3.492,-14.504l-0.004,0.183c-1.563,-6.287 -2.738,-11.6 -3.396,-15.937c-0.721,-4.342 -1.037,-7.892 -0.962,-10.592c0.054,-1.979 0.595,-4.066 1.675,-6.196c1.083,-2.129 2.458,-4.07 4.183,-5.758c1.787,-1.692 3.812,-3.137 6.121,-4.212c2.312,-1.134 4.783,-1.667 7.362,-1.592c2.7,0.075 5.313,1.171 7.954,3.225c2.642,2.05 5.196,5.187 7.659,9.4c4.35,7.379 7.783,15.521 10.229,24.533c0.817,2.959 1.787,6.946 2.725,12.017c0.996,5.067 2.142,11.279 3.554,18.583c1.354,7.296 2.979,15.804 4.867,25.521c1.887,9.717 4.154,20.758 6.75,33.138c2.371,11.704 4.362,21.962 5.971,30.77c1.612,8.871 3.079,16.592 4.27,23.167c1.196,6.575 2.3,12.183 3.25,16.717c0.892,4.525 1.867,8.333 2.8,11.421c6.159,-9.796 11.821,-19.113 16.988,-27.85c5.167,-8.734 9.771,-16.83 13.887,-24.213c4.046,-7.387 7.655,-14.012 10.7,-19.925c3.109,-5.917 5.646,-10.825 7.675,-14.725c3.175,-6.271 6.555,-13.317 10.08,-21.262c3.462,-7.942 7.987,-17.3 13.458,-28.188c0.696,-1.362 1.754,-2.767 3.112,-4.112c1.305,-1.405 2.834,-2.621 4.667,-3.65c1.771,-1.092 3.713,-1.938 5.771,-2.6c2.058,-0.6 4.108,-0.9 6.087,-0.846c3.417,0.096 6.842,2.054 10.392,5.996c3.496,3.875 6.871,9.612 10.079,17.083c0.284,0.787 1.067,2.792 2.179,5.946c1.167,3.15 2.446,6.904 4.005,11.271c1.495,4.362 3.158,9.091 4.941,14.179c1.771,5.096 3.559,10.004 5.225,14.733c1.663,4.788 3.225,9.033 4.554,12.913c1.338,3.816 2.392,6.725 3.184,8.612c6.104,15.533 10.854,27.85 14.258,37.067c3.404,9.154 6.054,15.171 8.133,18.054c18.384,-57.338 68.292,-164.525 72.68,-219.104c0.091,-1.179 0.766,-2.642 1.862,-4.388c1.083,-1.721 2.567,-3.358 4.4,-4.975c1.775,-1.558 3.804,-2.896 5.996,-4.033c2.192,-1.138 4.367,-1.617 6.646,-1.554c8.396,0.237 13.862,3.475 16.775,9.596c2.291,4.812 3.575,9.462 3.441,14.141m-827.604,203.871c1.584,-5.117 3.388,-11.667 5.413,-19.654c2.025,-7.983 4.187,-16.621 6.429,-25.921c2.246,-9.304 4.558,-19.021 6.821,-29.154c2.266,-10.138 4.346,-20.042 6.296,-29.65c1.891,-9.608 3.583,-18.563 5.02,-26.925c1.496,-8.358 2.534,-15.408 3.18,-21.271l0.27,-9.654c0.059,-2.1 0.434,-4.671 1.175,-7.65c0.742,-2.921 2.021,-5.767 3.963,-8.471c1.875,-2.708 4.462,-4.979 7.808,-6.742c3.35,-1.766 7.696,-2.604 13.092,-2.45c4.317,0.121 7.829,1.055 10.542,2.755c2.716,1.754 4.929,4.1 6.762,7.15c1.779,3.054 3.238,6.633 4.438,10.866c1.137,4.175 2.387,8.892 3.625,14.088c1.183,4.833 3.233,10.833 6.212,17.996c2.921,7.166 6.538,15.066 10.792,23.77c4.321,8.7 9.158,17.9 14.529,27.655c5.425,9.75 11.15,19.575 17.229,29.529c6.025,9.891 12.292,19.671 18.742,29.333c6.508,9.667 12.912,18.788 19.391,27.25c1.675,-6.133 3.363,-12.75 5,-19.725c1.692,-6.971 3.275,-14.008 4.85,-21.104c1.525,-7.1 3.042,-14.075 4.434,-20.879c1.454,-6.863 2.712,-13.188 3.896,-18.975c1.125,-5.85 2.166,-11.042 3.075,-15.575c0.85,-4.542 1.608,-8.059 2.154,-10.504c1.891,-9.546 3.629,-17.9 5.15,-25.184c1.587,-7.212 2.854,-13.958 3.933,-20.229c1.075,-6.329 1.908,-12.487 2.558,-18.592c0.596,-6.104 1.025,-12.754 1.23,-20.012c0.054,-1.854 0.287,-3.888 0.712,-6.096c0.421,-2.271 0.963,-4.417 1.679,-6.492c0.721,-2.083 1.554,-4.045 2.625,-5.87c1.075,-1.896 2.196,-3.296 3.367,-4.346c2.154,-1.921 4.175,-3.367 5.946,-4.396c1.766,-0.971 3.466,-1.7 5.037,-2.138c1.634,-0.433 3.263,-0.687 4.884,-0.762c1.62,-0.075 3.479,-0.079 5.462,-0.025c4.196,0.117 7.467,1.229 9.808,3.217c2.346,1.983 4.134,4.495 5.25,7.583c1.175,3.1 1.8,6.417 2,10.025c0.196,3.542 0.28,7.029 0.18,10.446c-0.03,1.079 -0.317,2.987 -0.88,5.796c-0.558,2.804 -1.187,5.908 -1.945,9.425c-0.759,3.52 -1.58,7.037 -2.517,10.67c-0.888,3.58 -1.754,6.734 -2.546,9.413c-5.442,18.45 -10.196,35.962 -14.204,52.533c-4.063,16.504 -7.558,32.009 -10.608,46.504c-3.05,14.559 -5.65,27.992 -7.855,40.413c-2.154,12.417 -4.033,23.708 -5.579,33.867c-0.162,1.554 -0.383,2.933 -0.596,4.183c-0.216,1.312 -0.375,2.75 -0.487,4.308c-0.042,1.621 -0.154,3.417 -0.275,5.571c-0.117,2.1 -0.25,4.738 -0.338,7.858c-0.17,6.113 -1.266,10.825 -3.275,14.067c-2.075,3.304 -4.541,5.696 -7.408,7.175c-2.921,1.538 -6.004,2.35 -9.254,2.558c-3.183,0.209 -6.063,0.25 -8.521,0.184c-5.042,-0.142 -9.025,-1.334 -12.025,-3.579c-2.996,-2.246 -5.729,-5.384 -8.258,-9.355c-2.525,-4.037 -5.159,-8.729 -7.879,-14.208c-2.73,-5.475 -6.4,-11.462 -11.017,-17.896c-12.575,-18.175 -25.354,-37.558 -38.275,-58.146c-12.863,-20.587 -25.958,-43.575 -39.167,-69.037c-2.512,10.379 -4.921,21.229 -7.096,32.571c-2.183,11.4 -4.237,22.625 -6.108,33.671c-1.937,11.112 -3.617,21.745 -5.162,31.904c-1.484,10.166 -2.88,19.241 -4.188,27.304c-0.083,3.004 -0.358,6.354 -0.879,10c-0.521,3.587 -1.1,6.996 -1.671,10.217c-0.629,3.225 -1.25,5.966 -1.854,8.287c-0.542,2.329 -1.004,3.813 -1.263,4.346c-0.637,1.425 -1.645,3.133 -3.02,5.196c-1.442,2.058 -3.059,4.058 -4.913,5.921c-1.85,1.929 -3.996,3.491 -6.317,4.75c-2.312,1.312 -4.67,1.904 -7.133,1.833c-4.612,-0.129 -8.254,-0.892 -11.037,-2.225c-2.78,-1.404 -4.946,-3.321 -6.496,-5.829c-1.613,-2.5 -2.604,-5.592 -3.1,-9.329c-0.496,-3.675 -0.675,-7.934 -0.538,-12.734c0.054,-1.979 0.367,-4.612 0.875,-7.779c0.454,-3.229 1.154,-6.75 1.921,-10.625c0.825,-3.821 1.779,-7.754 2.85,-11.804c1.017,-3.992 2.079,-7.742 3.079,-11.196m403.667,-155.15c-0.046,1.617 -0.429,4.492 -1.204,8.667c-0.775,4.121 -2.479,9.233 -5.238,15.396c-2.175,4.979 -3.854,9.191 -5.15,12.7c-1.241,3.441 -2.033,6.062 -2.321,7.854c-2.475,13.254 -4.92,27.587 -7.275,42.825c-2.345,15.3 -4.97,31.908 -7.812,49.712c-0.679,4.9 -1.488,10.038 -2.238,15.354c-0.808,5.321 -1.487,10.284 -2.1,14.946c-0.612,4.667 -1.083,8.792 -1.487,12.384c-0.4,3.525 -0.65,5.983 -0.683,7.237c-0.025,0.963 0.183,2.108 0.62,3.504c0.442,1.329 0.942,2.725 1.446,4.117c0.554,1.458 1.059,2.792 1.504,4.125c0.442,1.271 0.592,2.417 0.567,3.317c-0.075,2.7 -0.933,5.375 -2.683,8.025c-1.7,2.654 -4.471,5.216 -8.263,7.695c-3.121,2.13 -6.225,3.721 -9.312,4.713c-3.029,1.054 -6.109,1.629 -9.175,1.787c-5.634,-0.162 -9.913,-1.666 -12.95,-4.57c-3.042,-2.905 -5.225,-6.33 -6.559,-10.209c-1.387,-3.937 -2.112,-7.979 -2.233,-12.183c-0.121,-4.267 -0.142,-7.746 -0.067,-10.567c0.163,-5.633 0.488,-10.966 0.934,-16.054c0.383,-5.087 1.004,-10.112 1.683,-15.012c1.183,-7.892 2.825,-17.209 4.863,-27.771c2.037,-10.629 4.216,-21.909 6.591,-33.784c0.354,-1.85 1.038,-4.829 1.871,-8.887c0.896,-4.117 1.925,-8.771 3.038,-14.075c1.17,-5.308 2.408,-10.917 3.65,-16.763c1.304,-5.904 2.545,-11.512 3.716,-16.875c1.229,-5.37 2.267,-10.141 3.225,-14.437c0.963,-4.233 1.65,-7.396 2.067,-9.483c0.775,-3.88 1.396,-6.859 1.812,-8.95c0.421,-2.088 0.838,-4.059 1.184,-5.85c0.412,-1.784 0.891,-3.813 1.433,-6.017c0.538,-2.204 1.229,-5.308 2.179,-9.246l-0.187,0.358c0.291,-1.908 1.071,-3.929 2.275,-6.175c1.262,-2.308 2.762,-4.425 4.5,-6.416c1.733,-1.992 3.758,-3.613 5.954,-4.934c2.2,-1.258 4.375,-1.916 6.475,-1.862c4.921,0.142 9.021,1.454 12.375,3.833c3.3,2.375 5.979,5.209 7.921,8.563c1.95,3.296 3.35,6.879 4.087,10.558c0.792,3.742 1.121,6.992 1.042,9.817l-0.075,2.633Z" style="fill-rule:nonzero;"/><path d="M2174.98,865.517c-4.341,0.308 -8.687,0.616 -13.762,0.954l-0.938,0.067l-0.825,-0.492c-0.82,-0.488 -71.058,5.617 -92.65,5.704c-18.916,0.075 -16.095,-3.908 -21.537,-4.5l-1.425,-0.154c-3.058,0.392 -28.888,3.642 -22.75,-5.392l-0.683,0.079c-15.238,1.359 6.016,-32.245 7,-32.508c61.524,-16.383 130.312,-22.492 193.837,-24.321c12.754,-0.371 63.725,-2.025 67.504,2.475l0.688,2.388c-0.475,3.337 -0.975,4.504 -3.379,5.837c-5.384,2.984 -7.525,24.938 -5.059,29.384c1.384,2.487 2.704,4.625 3.425,5.266l1.779,1.584l-1.104,2.112c-3.617,6.904 -18.329,6.671 -26.929,6.538c-1.283,-0.021 -2.404,-0.042 -3.512,-0.021c-8.913,0.137 -19.2,1.879 -27.375,2.146l-5.913,0.183c-15.55,0.487 -30.912,1.575 -46.392,2.671" style="fill:#cb1d12;"/><path d="M2120.39,946.437c4.346,-0.242 8.696,-0.483 13.775,-0.75l0.938,-0.05l0.816,0.504c0.817,0.5 71.142,-4.546 92.725,-4.308c18.917,0.208 16.038,4.15 21.471,4.821l1.421,0.175c3.067,-0.346 28.938,-3.209 22.663,5.733l0.687,-0.071c15.258,-1.125 -6.496,32.154 -7.487,32.4c-61.763,15.459 -130.638,20.534 -194.18,21.409c-12.762,0.175 -63.75,1.066 -67.462,-3.488l-0.646,-2.396c0.521,-3.333 1.038,-4.491 3.463,-5.791c5.429,-2.9 7.904,-24.821 5.495,-29.305c-1.341,-2.508 -2.629,-4.662 -3.337,-5.312l-1.758,-1.613l1.137,-2.095c3.721,-6.85 18.425,-6.396 27.025,-6.134c1.279,0.042 2.4,0.075 3.508,0.075c8.913,-0.004 19.23,-1.596 27.405,-1.733l5.912,-0.1c15.558,-0.246 30.933,-1.104 46.429,-1.971"/><rect x="2354.05" y="828.904" width="15.867" height="5.133" style="fill:#1d1d1b;"/><path d="M2438.31,831.929l5.542,1.4c-1.154,4.542 -3.233,7.992 -6.242,10.375c-3.004,2.379 -6.679,3.579 -11.02,3.579c-4.496,0 -8.155,-0.916 -10.967,-2.754c-2.821,-1.825 -4.963,-4.479 -6.429,-7.95c-1.471,-3.483 -2.209,-7.204 -2.209,-11.191c0,-4.346 0.83,-8.138 2.492,-11.375c1.663,-3.238 4.025,-5.696 7.083,-7.38c3.067,-1.683 6.438,-2.516 10.113,-2.516c4.179,-0 7.692,1.058 10.529,3.187c2.85,2.129 4.833,5.113 5.95,8.967l-5.425,1.279c-0.962,-3.033 -2.371,-5.246 -4.208,-6.629c-1.838,-1.388 -4.15,-2.083 -6.942,-2.083c-3.2,-0 -5.883,0.77 -8.029,2.308c-2.15,1.533 -3.667,3.604 -4.533,6.192c-0.875,2.595 -1.313,5.27 -1.313,8.02c0,3.546 0.517,6.65 1.55,9.296c1.029,2.654 2.629,4.625 4.808,5.938c2.18,1.316 4.534,1.966 7.067,1.966c3.092,0 5.696,-0.895 7.838,-2.675c2.141,-1.791 3.587,-4.433 4.345,-7.954" style="fill:#1d1d1b;fill-rule:nonzero;"/><path d="M2451.45,816.308l5.833,0l0,5.834l-5.833,-0l-0,-5.834Zm-0,24.442l5.833,0l0,5.833l-5.833,0l-0,-5.833Z" style="fill:#1d1d1b;fill-rule:nonzero;"/><path d="M2464.86,835.498l5.13,-0.696c0.595,2.912 1.587,5.012 2.995,6.296c1.413,1.283 3.142,1.925 5.192,1.925c2.433,-0 4.483,-0.838 6.138,-2.509c1.65,-1.671 2.479,-3.741 2.479,-6.212c-0,-2.354 -0.771,-4.296 -2.317,-5.834c-1.533,-1.525 -3.487,-2.291 -5.871,-2.291c-0.975,-0 -2.179,0.191 -3.625,0.571l0.571,-4.492c0.342,0.042 0.625,0.058 0.829,0.058c2.196,0 4.163,-0.571 5.921,-1.708c1.746,-1.138 2.621,-2.892 2.621,-5.25c-0,-1.879 -0.638,-3.433 -1.913,-4.667c-1.27,-1.233 -2.916,-1.85 -4.929,-1.85c-2.004,0 -3.662,0.634 -4.996,1.896c-1.333,1.263 -2.187,3.158 -2.57,5.688l-5.13,-0.934c0.63,-3.441 2.05,-6.112 4.275,-8.008c2.221,-1.896 4.992,-2.842 8.296,-2.842c2.271,0 4.371,0.488 6.288,1.471c1.925,0.971 3.396,2.304 4.404,3.983c1.021,1.692 1.529,3.484 1.529,5.38c0,1.795 -0.487,3.429 -1.446,4.908c-0.975,1.479 -2.416,2.654 -4.312,3.529c2.471,0.563 4.387,1.75 5.758,3.55c1.358,1.788 2.038,4.042 2.038,6.738c-0,3.641 -1.33,6.745 -3.984,9.283c-2.662,2.537 -6.029,3.8 -10.087,3.8c-3.667,-0 -6.713,-1.1 -9.134,-3.283c-2.429,-2.192 -3.812,-5.021 -4.15,-8.5" style="fill:#1d1d1b;fill-rule:nonzero;"/><path d="M2531.64,846.582l0,-41.767l8.284,0l9.875,29.567c0.916,2.75 1.575,4.812 1.995,6.183c0.475,-1.517 1.225,-3.754 2.238,-6.7l10.05,-29.05l7.4,0l-0,41.767l-5.308,-0l-0,-34.942l-12.192,34.942l-4.979,-0l-12.054,-35.584l-0,35.584l-5.309,-0Z" style="fill:#1d1d1b;fill-rule:nonzero;"/><path d="M2581.1,816.308l5.829,0l0,5.834l-5.829,-0l0,-5.834Zm0,24.442l5.829,0l0,5.833l-5.829,0l0,-5.833Z" style="fill:#1d1d1b;fill-rule:nonzero;"/><path d="M2595.27,836.9l4.9,-0.409c0.417,2.313 1.217,3.984 2.392,5.025c1.175,1.042 2.687,1.567 4.533,1.567c1.571,-0 2.954,-0.363 4.15,-1.088c1.196,-0.72 2.167,-1.683 2.917,-2.9c0.75,-1.204 1.379,-2.837 1.891,-4.887c0.517,-2.054 0.771,-4.146 0.771,-6.275c0,-0.221 -0.008,-0.571 -0.029,-1.029c-1.021,1.633 -2.421,2.966 -4.192,3.975c-1.77,1.025 -3.695,1.529 -5.754,1.529c-3.45,-0 -6.366,-1.254 -8.758,-3.763c-2.383,-2.5 -3.579,-5.804 -3.579,-9.908c-0,-4.237 1.246,-7.642 3.746,-10.225c2.483,-2.579 5.608,-3.871 9.37,-3.871c2.7,0 5.18,0.729 7.438,2.196c2.246,1.458 3.946,3.542 5.112,6.254c1.167,2.7 1.75,6.621 1.75,11.742c0,5.337 -0.57,9.587 -1.733,12.746c-1.154,3.171 -2.883,5.571 -5.171,7.225c-2.283,1.65 -4.958,2.479 -8.033,2.479c-3.263,-0 -5.925,-0.904 -7.996,-2.725c-2.062,-1.817 -3.304,-4.371 -3.725,-7.658m20.942,-18.425c-0,-2.934 -0.779,-5.271 -2.334,-6.992c-1.545,-1.717 -3.429,-2.583 -5.65,-2.583c-2.291,-0 -4.275,0.92 -5.945,2.779c-1.688,1.858 -2.521,4.271 -2.521,7.225c-0,2.654 0.8,4.812 2.379,6.462c1.596,1.663 3.583,2.492 5.942,2.492c2.375,-0 4.316,-0.829 5.845,-2.492c1.525,-1.65 2.284,-3.954 2.284,-6.891" style="fill:#1d1d1b;fill-rule:nonzero;"/><path d="M2653.61,815.025l-5.075,0.408c-0.454,-2.013 -1.104,-3.479 -1.954,-4.396c-1.392,-1.467 -3.113,-2.196 -5.15,-2.196c-1.642,0 -3.105,0.454 -4.359,1.371c-1.608,1.175 -2.875,2.888 -3.821,5.142c-0.929,2.266 -1.42,5.483 -1.454,9.654c1.234,-1.875 2.75,-3.275 4.538,-4.179c1.787,-0.917 3.654,-1.371 5.616,-1.371c3.425,-0 6.342,1.262 8.755,3.783c2.4,2.517 3.604,5.763 3.604,9.759c-0,2.625 -0.563,5.054 -1.688,7.312c-1.141,2.254 -2.687,3.975 -4.666,5.171c-1.975,1.196 -4.221,1.8 -6.734,1.8c-4.266,-0 -7.754,-1.575 -10.458,-4.717c-2.692,-3.141 -4.042,-8.321 -4.042,-15.537c0,-8.067 1.492,-13.938 4.479,-17.604c2.605,-3.188 6.117,-4.784 10.538,-4.784c3.283,0 5.992,0.921 8.092,2.763c2.1,1.833 3.362,4.375 3.779,7.621m-21,18.025c-0,1.766 0.383,3.458 1.129,5.075c0.75,1.612 1.8,2.837 3.129,3.683c1.346,0.846 2.763,1.275 4.271,1.275c2.183,-0 4.05,-0.875 5.6,-2.625c1.546,-1.75 2.321,-4.125 2.321,-7.125c-0,-2.888 -0.767,-5.163 -2.296,-6.829c-1.525,-1.663 -3.471,-2.496 -5.829,-2.496c-2.317,-0 -4.288,0.833 -5.904,2.496c-1.613,1.666 -2.421,3.841 -2.421,6.546" style="fill:#1d1d1b;fill-rule:nonzero;"/><path d="M2704.57,846.582l-0,-17.696l-16.1,-24.071l6.65,0l8.254,12.642c1.538,2.341 2.967,4.683 4.267,7.025c1.275,-2.188 2.821,-4.638 4.621,-7.359l8.087,-12.308l6.446,0l-16.683,24.071l-0,17.696l-5.542,-0Z" style="fill:#1d1d1b;fill-rule:nonzero;"/><path d="M2729.25,816.308l5.833,0l0,5.834l-5.833,-0l-0,-5.834Zm-0,24.442l5.833,0l0,5.833l-5.833,0l-0,-5.833Z" style="fill:#1d1d1b;fill-rule:nonzero;"/><path d="M2743.41,836.9l4.904,-0.409c0.412,2.313 1.212,3.984 2.387,5.025c1.179,1.042 2.688,1.567 4.534,1.567c1.575,-0 2.954,-0.363 4.15,-1.088c1.195,-0.72 2.166,-1.683 2.916,-2.9c0.75,-1.204 1.379,-2.837 1.896,-4.887c0.513,-2.054 0.767,-4.146 0.767,-6.275c-0,-0.221 -0.009,-0.571 -0.029,-1.029c-1.021,1.633 -2.421,2.966 -4.188,3.975c-1.771,1.025 -3.696,1.529 -5.758,1.529c-3.45,-0 -6.367,-1.254 -8.759,-3.763c-2.383,-2.5 -3.579,-5.804 -3.579,-9.908c0,-4.237 1.246,-7.642 3.746,-10.225c2.488,-2.579 5.608,-3.871 9.371,-3.871c2.7,0 5.183,0.729 7.437,2.196c2.246,1.458 3.946,3.542 5.117,6.254c1.167,2.7 1.746,6.621 1.746,11.742c-0,5.337 -0.571,9.587 -1.733,12.746c-1.155,3.171 -2.884,5.571 -5.171,7.225c-2.284,1.65 -4.954,2.479 -8.029,2.479c-3.267,-0 -5.93,-0.904 -8,-2.725c-2.063,-1.817 -3.305,-4.371 -3.725,-7.658m20.941,-18.425c0,-2.934 -0.775,-5.271 -2.333,-6.992c-1.542,-1.717 -3.429,-2.583 -5.65,-2.583c-2.292,-0 -4.275,0.92 -5.946,2.779c-1.683,1.858 -2.521,4.271 -2.521,7.225c0,2.654 0.8,4.812 2.384,6.462c1.595,1.663 3.579,2.492 5.937,2.492c2.379,-0 4.317,-0.829 5.846,-2.492c1.529,-1.65 2.283,-3.954 2.283,-6.891" style="fill:#1d1d1b;fill-rule:nonzero;"/><path d="M2775.85,836.9l4.904,-0.409c0.413,2.313 1.213,3.984 2.392,5.025c1.175,1.042 2.683,1.567 4.529,1.567c1.575,-0 2.954,-0.363 4.15,-1.088c1.196,-0.72 2.167,-1.683 2.917,-2.9c0.75,-1.204 1.379,-2.837 1.896,-4.887c0.512,-2.054 0.766,-4.146 0.766,-6.275c0,-0.221 -0.008,-0.571 -0.025,-1.029c-1.025,1.633 -2.425,2.966 -4.191,3.975c-1.771,1.025 -3.696,1.529 -5.759,1.529c-3.45,-0 -6.366,-1.254 -8.758,-3.763c-2.383,-2.5 -3.579,-5.804 -3.579,-9.908c-0,-4.237 1.246,-7.642 3.746,-10.225c2.487,-2.579 5.608,-3.871 9.37,-3.871c2.705,0 5.184,0.729 7.438,2.196c2.246,1.458 3.946,3.542 5.117,6.254c1.166,2.7 1.745,6.621 1.745,11.742c0,5.337 -0.57,9.587 -1.733,12.746c-1.154,3.171 -2.883,5.571 -5.171,7.225c-2.283,1.65 -4.954,2.479 -8.029,2.479c-3.267,-0 -5.929,-0.904 -7.996,-2.725c-2.066,-1.817 -3.308,-4.371 -3.729,-7.658m20.942,-18.425c-0,-2.934 -0.775,-5.271 -2.334,-6.992c-1.541,-1.717 -3.429,-2.583 -5.65,-2.583c-2.291,-0 -4.275,0.92 -5.945,2.779c-1.684,1.858 -2.521,4.271 -2.521,7.225c-0,2.654 0.8,4.812 2.383,6.462c1.596,1.663 3.579,2.492 5.942,2.492c2.375,-0 4.312,-0.829 5.841,-2.492c1.53,-1.65 2.284,-3.954 2.284,-6.891" style="fill:#1d1d1b;fill-rule:nonzero;"/><path d="M2841.76,846.582l-0,-41.767l5.541,0l0,20.708l20.746,-20.708l7.484,0l-17.517,16.938l18.275,24.829l-7.288,-0l-14.866,-21.079l-6.834,6.612l0,14.467l-5.541,-0Z" style="fill:#1d1d1b;fill-rule:nonzero;"/><path d="M2881.66,816.308l5.833,0l-0,5.834l-5.833,-0l-0,-5.834Zm-0,24.442l5.833,0l-0,5.833l-5.833,0l-0,-5.833Z" style="fill:#1d1d1b;fill-rule:nonzero;"/><path d="M2914.32,846.582l-5.129,-0l0,-32.688c-1.237,1.188 -2.862,2.363 -4.862,3.538c-2.005,1.179 -3.813,2.066 -5.405,2.646l0,-4.959c2.863,-1.341 5.375,-2.971 7.521,-4.9c2.15,-1.912 3.675,-3.771 4.571,-5.579l3.304,0l0,41.942Z" style="fill:#1d1d1b;fill-rule:nonzero;"/><path d="M2954.4,841.68l0,4.9l-27.65,0c-0.042,-1.233 0.167,-2.42 0.604,-3.566c0.709,-1.875 1.846,-3.734 3.413,-5.55c1.566,-1.821 3.8,-3.921 6.708,-6.3c4.521,-3.725 7.592,-6.671 9.2,-8.846c1.608,-2.179 2.421,-4.242 2.421,-6.188c-0,-2.029 -0.729,-3.741 -2.192,-5.141c-1.454,-1.392 -3.362,-2.092 -5.704,-2.092c-2.483,0 -4.462,0.742 -5.954,2.221c-1.483,1.467 -2.233,3.508 -2.254,6.121l-5.246,-0.525c0.354,-3.925 1.721,-6.921 4.071,-8.979c2.358,-2.063 5.521,-3.096 9.496,-3.096c4.008,-0 7.187,1.108 9.52,3.337c2.342,2.225 3.509,4.988 3.509,8.271c-0,1.675 -0.342,3.317 -1.034,4.933c-0.679,1.621 -1.812,3.321 -3.4,5.113c-1.595,1.779 -4.229,4.237 -7.904,7.35c-3.079,2.583 -5.062,4.333 -5.937,5.258c-0.875,0.925 -1.596,1.846 -2.171,2.779l20.504,0Z" style="fill:#1d1d1b;fill-rule:nonzero;"/><rect x="2354.05" y="969.458" width="15.867" height="5.133" style="fill:#1d1d1b;"/><path d="M2438.31,972.481l5.542,1.4c-1.154,4.542 -3.233,7.992 -6.242,10.375c-3.004,2.379 -6.679,3.579 -11.02,3.579c-4.496,0 -8.155,-0.917 -10.967,-2.754c-2.821,-1.829 -4.963,-4.479 -6.429,-7.95c-1.471,-3.483 -2.209,-7.204 -2.209,-11.192c0,-4.346 0.83,-8.137 2.492,-11.375c1.663,-3.237 4.025,-5.696 7.083,-7.379c3.067,-1.683 6.438,-2.517 10.113,-2.517c4.179,0 7.692,1.059 10.529,3.188c2.85,2.129 4.833,5.112 5.95,8.962l-5.425,1.284c-0.962,-3.034 -2.371,-5.25 -4.208,-6.629c-1.838,-1.392 -4.15,-2.084 -6.942,-2.084c-3.2,0 -5.883,0.771 -8.029,2.309c-2.15,1.533 -3.667,3.604 -4.533,6.191c-0.875,2.596 -1.313,5.271 -1.313,8.021c0,3.546 0.517,6.65 1.55,9.292c1.029,2.658 2.629,4.629 4.808,5.941c2.18,1.313 4.534,1.963 7.067,1.963c3.092,-0 5.696,-0.892 7.838,-2.671c2.141,-1.792 3.587,-4.433 4.345,-7.954" style="fill:#1d1d1b;fill-rule:nonzero;"/><path d="M2451.45,956.858l5.833,0l0,5.834l-5.833,-0l-0,-5.834Zm-0,24.442l5.833,0l0,5.833l-5.833,0l-0,-5.833Z" style="fill:#1d1d1b;fill-rule:nonzero;"/><path d="M2484.11,987.133l-5.133,0l-0,-32.687c-1.234,1.187 -2.859,2.362 -4.859,3.537c-2.008,1.18 -3.812,2.067 -5.408,2.646l-0,-4.958c2.867,-1.342 5.375,-2.975 7.521,-4.9c2.15,-1.917 3.675,-3.771 4.57,-5.579l3.309,-0l-0,41.941Z" style="fill:#1d1d1b;fill-rule:nonzero;"/><path d="M2497.3,966.522c0,-4.929 0.505,-8.917 1.517,-11.929c1.021,-3.021 2.529,-5.346 4.529,-6.971c1.996,-1.625 4.513,-2.429 7.546,-2.429c2.238,-0 4.204,0.445 5.9,1.35c1.692,0.904 3.092,2.208 4.184,3.908c1.087,1.692 1.941,3.762 2.566,6.204c0.629,2.438 0.938,5.733 0.938,9.867c-0,4.9 -0.505,8.866 -1.505,11.879c-0.999,3.025 -2.504,5.346 -4.508,6.979c-1.992,1.633 -4.525,2.454 -7.575,2.454c-4.017,0 -7.175,-1.429 -9.471,-4.3c-2.75,-3.5 -4.121,-9.166 -4.121,-17.012m5.25,0.021c0,6.87 0.796,11.441 2.4,13.695c1.609,2.267 3.588,3.396 5.942,3.396c2.35,0 4.338,-1.137 5.938,-3.404c1.604,-2.275 2.404,-6.833 2.404,-13.687c-0,-6.875 -0.8,-11.446 -2.404,-13.7c-1.592,-2.267 -3.596,-3.392 -5.996,-3.392c-2.35,-0 -4.242,1 -5.646,2.996c-1.763,2.533 -2.638,7.241 -2.638,14.096" style="fill:#1d1d1b;fill-rule:nonzero;"/><path d="M2529.74,966.522c-0,-4.929 0.504,-8.917 1.517,-11.929c1.02,-3.021 2.529,-5.346 4.529,-6.971c1.996,-1.625 4.512,-2.429 7.546,-2.429c2.237,-0 4.204,0.445 5.904,1.35c1.687,0.904 3.087,2.208 4.179,3.908c1.087,1.692 1.942,3.762 2.567,6.204c0.629,2.438 0.937,5.733 0.937,9.867c0,4.9 -0.504,8.866 -1.504,11.879c-1,3.025 -2.504,5.346 -4.508,6.979c-1.992,1.633 -4.525,2.454 -7.575,2.454c-4.017,0 -7.175,-1.429 -9.471,-4.3c-2.75,-3.5 -4.121,-9.166 -4.121,-17.012m5.25,0.021c-0,6.87 0.796,11.441 2.4,13.695c1.608,2.267 3.587,3.396 5.942,3.396c2.354,0 4.337,-1.137 5.937,-3.404c1.604,-2.275 2.404,-6.833 2.404,-13.687c0,-6.875 -0.8,-11.446 -2.404,-13.7c-1.592,-2.267 -3.596,-3.392 -5.996,-3.392c-2.35,-0 -4.241,1 -5.646,2.996c-1.762,2.533 -2.637,7.241 -2.637,14.096" style="fill:#1d1d1b;fill-rule:nonzero;"/><path d="M2596.52,987.133l0,-41.766l8.284,-0l9.875,29.566c0.916,2.75 1.579,4.813 1.996,6.184c0.475,-1.521 1.225,-3.754 2.237,-6.7l10.05,-29.05l7.404,-0l0,41.766l-5.312,0l-0,-34.941l-12.192,34.941l-4.979,0l-12.054,-35.583l-0,35.583l-5.309,0Z" style="fill:#1d1d1b;fill-rule:nonzero;"/><path d="M2645.99,956.858l5.834,0l-0,5.834l-5.834,-0l0,-5.834Zm0,24.442l5.834,0l-0,5.833l-5.834,0l0,-5.833Z" style="fill:#1d1d1b;fill-rule:nonzero;"/><path d="M2678.64,987.133l-5.133,0l0,-32.687c-1.233,1.187 -2.858,2.362 -4.858,3.537c-2.009,1.18 -3.813,2.067 -5.409,2.646l0,-4.958c2.867,-1.342 5.375,-2.975 7.521,-4.9c2.15,-1.917 3.675,-3.771 4.571,-5.579l3.308,-0l0,41.941Z" style="fill:#1d1d1b;fill-rule:nonzero;"/><path d="M2691.84,966.522c0,-4.929 0.504,-8.917 1.517,-11.929c1.021,-3.021 2.529,-5.346 4.529,-6.971c1.996,-1.625 4.512,-2.429 7.546,-2.429c2.237,-0 4.2,0.445 5.9,1.35c1.691,0.904 3.091,2.208 4.183,3.908c1.088,1.692 1.942,3.762 2.567,6.204c0.629,2.438 0.937,5.733 0.937,9.867c0,4.9 -0.504,8.866 -1.504,11.879c-1,3.025 -2.504,5.346 -4.512,6.979c-1.992,1.633 -4.521,2.454 -7.571,2.454c-4.017,0 -7.175,-1.429 -9.471,-4.3c-2.75,-3.5 -4.121,-9.166 -4.121,-17.012m5.25,0.021c0,6.87 0.796,11.441 2.4,13.695c1.608,2.267 3.588,3.396 5.942,3.396c2.354,0 4.337,-1.137 5.937,-3.404c1.604,-2.275 2.404,-6.833 2.404,-13.687c0,-6.875 -0.8,-11.446 -2.404,-13.7c-1.591,-2.267 -3.596,-3.392 -5.996,-3.392c-2.35,-0 -4.241,1 -5.645,2.996c-1.763,2.533 -2.638,7.241 -2.638,14.096" style="fill:#1d1d1b;fill-rule:nonzero;"/><path d="M2724.28,966.522c0,-4.929 0.504,-8.917 1.517,-11.929c1.021,-3.021 2.529,-5.346 4.529,-6.971c1.996,-1.625 4.512,-2.429 7.546,-2.429c2.237,-0 4.204,0.445 5.904,1.35c1.688,0.904 3.088,2.208 4.179,3.908c1.088,1.692 1.942,3.762 2.567,6.204c0.629,2.438 0.941,5.733 0.941,9.867c0.001,4.9 -0.508,8.866 -1.508,11.879c-1,3.025 -2.504,5.346 -4.508,6.979c-1.992,1.633 -4.525,2.454 -7.575,2.454c-4.017,0 -7.175,-1.429 -9.471,-4.3c-2.75,-3.5 -4.121,-9.166 -4.121,-17.012m5.25,0.021c0,6.87 0.796,11.441 2.4,13.695c1.608,2.267 3.588,3.396 5.942,3.396c2.354,0 4.337,-1.137 5.937,-3.404c1.604,-2.275 2.404,-6.833 2.404,-13.687c0,-6.875 -0.8,-11.446 -2.404,-13.7c-1.591,-2.267 -3.596,-3.392 -5.996,-3.392c-2.35,-0 -4.241,1 -5.645,2.996c-1.763,2.533 -2.638,7.241 -2.638,14.096" style="fill:#1d1d1b;fill-rule:nonzero;"/><path d="M2801.9,987.133l-0,-17.695l-16.096,-24.071l6.646,-0l8.258,12.637c1.533,2.346 2.962,4.688 4.262,7.029c1.275,-2.187 2.821,-4.637 4.621,-7.358l8.088,-12.308l6.446,-0l-16.684,24.071l0,17.695l-5.541,0Z" style="fill:#1d1d1b;fill-rule:nonzero;"/><path d="M2826.58,956.858l5.833,0l0,5.834l-5.833,-0l0,-5.834Zm0,24.442l5.833,0l0,5.833l-5.833,0l0,-5.833Z" style="fill:#1d1d1b;fill-rule:nonzero;"/><path d="M2859.23,987.133l-5.133,0l-0,-32.687c-1.234,1.187 -2.859,2.362 -4.859,3.537c-2.004,1.18 -3.812,2.067 -5.408,2.646l0,-4.958c2.867,-1.342 5.379,-2.975 7.525,-4.9c2.15,-1.917 3.675,-3.771 4.571,-5.579l3.304,-0l0,41.941Z" style="fill:#1d1d1b;fill-rule:nonzero;"/><path d="M2872.42,966.522c-0,-4.929 0.504,-8.917 1.516,-11.929c1.021,-3.021 2.53,-5.346 4.53,-6.971c1.995,-1.625 4.512,-2.429 7.55,-2.429c2.233,-0 4.2,0.445 5.9,1.35c1.687,0.904 3.091,2.208 4.179,3.908c1.087,1.692 1.941,3.762 2.566,6.204c0.63,2.438 0.942,5.733 0.942,9.867c0,4.9 -0.504,8.866 -1.508,11.879c-1,3.025 -2.504,5.346 -4.509,6.979c-1.991,1.633 -4.52,2.454 -7.57,2.454c-4.017,0 -7.18,-1.429 -9.475,-4.3c-2.75,-3.5 -4.121,-9.166 -4.121,-17.012m5.254,0.021c-0,6.87 0.792,11.441 2.4,13.695c1.604,2.267 3.583,3.396 5.942,3.396c2.35,0 4.333,-1.137 5.933,-3.404c1.608,-2.275 2.404,-6.833 2.404,-13.687c0,-6.875 -0.796,-11.446 -2.404,-13.7c-1.588,-2.267 -3.596,-3.392 -5.996,-3.392c-2.35,-0 -4.242,1 -5.646,2.996c-1.758,2.533 -2.633,7.241 -2.633,14.096" style="fill:#1d1d1b;fill-rule:nonzero;"/><path d="M2904.87,966.522c-0,-4.929 0.508,-8.917 1.517,-11.929c1.02,-3.021 2.533,-5.346 4.529,-6.971c1.995,-1.625 4.512,-2.429 7.55,-2.429c2.233,-0 4.2,0.445 5.9,1.35c1.691,0.904 3.091,2.208 4.179,3.908c1.087,1.692 1.941,3.762 2.566,6.204c0.634,2.438 0.942,5.733 0.942,9.867c0,4.9 -0.504,8.866 -1.508,11.879c-1,3.025 -2.504,5.346 -4.509,6.979c-1.991,1.633 -4.52,2.454 -7.57,2.454c-4.017,0 -7.18,-1.429 -9.475,-4.3c-2.75,-3.5 -4.121,-9.166 -4.121,-17.012m5.254,0.021c0,6.87 0.792,11.441 2.4,13.695c1.604,2.267 3.583,3.396 5.942,3.396c2.35,0 4.333,-1.137 5.933,-3.404c1.608,-2.275 2.408,-6.833 2.408,-13.687c0,-6.875 -0.8,-11.446 -2.408,-13.7c-1.588,-2.267 -3.596,-3.392 -5.996,-3.392c-2.35,-0 -4.242,1 -5.646,2.996c-1.758,2.533 -2.633,7.241 -2.633,14.096" style="fill:#1d1d1b;fill-rule:nonzero;"/><path d="M2971.53,987.133l0,-41.766l5.542,-0l0,20.708l20.75,-20.708l7.479,-0l-17.516,16.937l18.279,24.829l-7.292,0l-14.862,-21.079l-6.838,6.613l0,14.466l-5.541,0Z" style="fill:#1d1d1b;fill-rule:nonzero;"/><path d="M3011.43,956.858l5.83,0l-0,5.834l-5.83,-0l0,-5.834Zm0,24.442l5.83,0l-0,5.833l-5.83,0l0,-5.833Z" style="fill:#1d1d1b;fill-rule:nonzero;"/><path d="M3044.09,987.133l-5.129,0l-0,-32.687c-1.238,1.187 -2.863,2.362 -4.863,3.537c-2.004,1.18 -3.812,2.067 -5.404,2.646l0,-4.958c2.867,-1.342 5.375,-2.975 7.521,-4.9c2.15,-1.917 3.675,-3.771 4.571,-5.579l3.304,-0l0,41.941Z" style="fill:#1d1d1b;fill-rule:nonzero;"/><path d="M3057.28,966.522c-0,-4.929 0.504,-8.917 1.512,-11.929c1.021,-3.021 2.534,-5.346 4.534,-6.971c1.996,-1.625 4.512,-2.429 7.546,-2.429c2.237,-0 4.2,0.445 5.9,1.35c1.691,0.904 3.091,2.208 4.183,3.908c1.083,1.692 1.937,3.762 2.562,6.204c0.634,2.438 0.942,5.733 0.942,9.867c0,4.9 -0.504,8.866 -1.504,11.879c-1,3.025 -2.508,5.346 -4.513,6.979c-1.991,1.633 -4.52,2.454 -7.57,2.454c-4.017,0 -7.175,-1.429 -9.471,-4.3c-2.75,-3.5 -4.121,-9.166 -4.121,-17.012m5.25,0.021c-0,6.87 0.796,11.441 2.4,13.695c1.604,2.267 3.587,3.396 5.942,3.396c2.35,0 4.337,-1.137 5.937,-3.404c1.604,-2.275 2.404,-6.833 2.404,-13.687c0,-6.875 -0.8,-11.446 -2.404,-13.7c-1.592,-2.267 -3.596,-3.392 -6,-3.392c-2.35,-0 -4.237,1 -5.646,2.996c-1.758,2.533 -2.633,7.241 -2.633,14.096" style="fill:#1d1d1b;fill-rule:nonzero;"/><path d="M3089.72,966.522c0,-4.929 0.505,-8.917 1.513,-11.929c1.025,-3.021 2.533,-5.346 4.533,-6.971c1.996,-1.625 4.513,-2.429 7.546,-2.429c2.238,-0 4.2,0.445 5.9,1.35c1.692,0.904 3.092,2.208 4.183,3.908c1.084,1.692 1.942,3.762 2.567,6.204c0.629,2.438 0.938,5.733 0.938,9.867c-0,4.9 -0.505,8.866 -1.505,11.879c-1,3.025 -2.504,5.346 -4.512,6.979c-1.992,1.633 -4.521,2.454 -7.571,2.454c-4.017,0 -7.175,-1.429 -9.471,-4.3c-2.75,-3.5 -4.121,-9.166 -4.121,-17.012m5.25,0.021c0,6.87 0.796,11.441 2.4,13.695c1.609,2.267 3.588,3.396 5.942,3.396c2.35,0 4.338,-1.137 5.938,-3.404c1.604,-2.275 2.404,-6.833 2.404,-13.687c-0,-6.875 -0.8,-11.446 -2.404,-13.7c-1.592,-2.267 -3.596,-3.392 -5.996,-3.392c-2.354,-0 -4.242,1 -5.646,2.996c-1.763,2.533 -2.638,7.241 -2.638,14.096" style="fill:#1d1d1b;fill-rule:nonzero;"/><path d="M2175.39,1158.54c-4.341,0.308 -8.687,0.616 -13.762,0.958l-0.938,0.067l-0.825,-0.492c-0.821,-0.492 -71.062,5.612 -92.65,5.7c-18.921,0.075 -16.096,-3.908 -21.541,-4.496l-1.421,-0.158c-3.063,0.396 -28.888,3.641 -22.75,-5.392l-0.688,0.079c-15.233,1.359 6.021,-32.241 7.004,-32.504c61.525,-16.387 130.313,-22.496 193.838,-24.325c12.754,-0.367 63.721,-2.025 67.504,2.475l0.688,2.388c-0.475,3.341 -0.98,4.504 -3.38,5.837c-5.383,2.988 -7.529,24.942 -5.058,29.388c1.379,2.487 2.704,4.62 3.425,5.262l1.779,1.583l-1.108,2.113c-3.613,6.908 -18.329,6.675 -26.925,6.537c-1.288,-0.02 -2.404,-0.037 -3.517,-0.02c-8.912,0.137 -19.196,1.883 -27.375,2.145l-5.908,0.188c-15.55,0.483 -30.913,1.571 -46.392,2.667" style="fill:#cd1f12;"/><path d="M2120.8,1239.46c4.346,-0.242 8.692,-0.483 13.771,-0.75l0.942,-0.05l0.817,0.504c0.812,0.5 71.137,-4.55 92.72,-4.308c18.921,0.208 16.038,4.15 21.471,4.821l1.421,0.175c3.071,-0.346 28.942,-3.209 22.667,5.733l0.687,-0.071c15.254,-1.125 -6.496,32.15 -7.491,32.4c-61.759,15.459 -130.634,20.534 -194.175,21.409c-12.763,0.175 -63.75,1.066 -67.463,-3.488l-0.65,-2.396c0.521,-3.337 1.042,-4.491 3.467,-5.791c5.425,-2.9 7.904,-24.825 5.496,-29.305c-1.346,-2.508 -2.63,-4.662 -3.338,-5.316l-1.762,-1.609l1.141,-2.095c3.721,-6.851 18.425,-6.396 27.021,-6.134c1.283,0.042 2.404,0.075 3.513,0.075c8.912,-0.004 19.229,-1.596 27.404,-1.733l5.912,-0.1c15.559,-0.246 30.934,-1.104 46.429,-1.971" style="fill:#060401;"/><rect x="2354.45" y="1121.93" width="15.871" height="5.133" style="fill:#1d1d1b;"/><path d="M2409.09,1139.61l-0,-41.767l18.508,-0c3.729,-0 6.558,0.379 8.487,1.129c1.938,0.746 3.484,2.071 4.642,3.967c1.154,1.896 1.733,3.996 1.733,6.287c0,2.967 -0.966,5.467 -2.883,7.496c-1.912,2.033 -4.871,3.317 -8.875,3.871c1.471,0.7 2.579,1.4 3.333,2.083c1.617,1.475 3.142,3.329 4.571,5.559l7.221,11.375l-6.9,-0l-5.521,-8.692c-1.604,-2.517 -2.937,-4.433 -3.975,-5.767c-1.05,-1.333 -1.987,-2.254 -2.812,-2.787c-0.817,-0.525 -1.659,-0.896 -2.517,-1.109c-0.625,-0.129 -1.642,-0.195 -3.075,-0.195l-6.396,-0l0,18.55l-5.541,-0Zm5.541,-23.334l11.863,0c2.525,0 4.491,-0.262 5.912,-0.787c1.421,-0.517 2.496,-1.35 3.225,-2.509c0.742,-1.15 1.113,-2.391 1.113,-3.745c-0,-1.971 -0.713,-3.605 -2.142,-4.875c-1.429,-1.275 -3.687,-1.909 -6.767,-1.909l-13.204,0l0,13.825Z" style="fill:#1d1d1b;fill-rule:nonzero;"/><path d="M2451.86,1109.34l5.829,-0l0,5.829l-5.829,-0l0,-5.829Zm0,24.437l5.829,0l0,5.833l-5.829,0l0,-5.833Z" style="fill:#1d1d1b;fill-rule:nonzero;"/><path d="M2492.16,1134.71l-0,4.9l-27.65,0c-0.038,-1.233 0.166,-2.42 0.604,-3.566c0.712,-1.875 1.85,-3.734 3.412,-5.554c1.567,-1.817 3.8,-3.917 6.709,-6.296c4.52,-3.725 7.595,-6.671 9.2,-8.846c1.612,-2.179 2.42,-4.242 2.42,-6.188c0,-2.029 -0.729,-3.741 -2.191,-5.141c-1.454,-1.392 -3.359,-2.092 -5.704,-2.092c-2.484,0 -4.463,0.742 -5.955,2.221c-1.483,1.467 -2.233,3.508 -2.254,6.121l-5.246,-0.525c0.355,-3.925 1.721,-6.921 4.071,-8.979c2.363,-2.063 5.521,-3.096 9.5,-3.096c4.004,-0 7.184,1.108 9.517,3.337c2.342,2.225 3.508,4.984 3.508,8.271c0,1.675 -0.341,3.317 -1.029,4.933c-0.683,1.621 -1.817,3.321 -3.4,5.113c-1.596,1.779 -4.233,4.237 -7.908,7.346c-3.079,2.587 -5.063,4.337 -5.938,5.262c-0.875,0.925 -1.596,1.846 -2.171,2.779l20.505,0Z" style="fill:#1d1d1b;fill-rule:nonzero;"/><path d="M2497.71,1119c-0,-4.929 0.504,-8.917 1.512,-11.929c1.021,-3.021 2.534,-5.346 4.534,-6.971c1.995,-1.621 4.512,-2.429 7.545,-2.429c2.238,-0 4.2,0.446 5.9,1.35c1.692,0.904 3.092,2.208 4.184,3.908c1.083,1.692 1.941,3.763 2.562,6.204c0.634,2.442 0.942,5.734 0.942,9.867c-0,4.9 -0.504,8.867 -1.504,11.883c-1,3.021 -2.509,5.346 -4.513,6.979c-1.991,1.63 -4.521,2.45 -7.571,2.45c-4.016,0 -7.175,-1.429 -9.47,-4.3c-2.75,-3.5 -4.121,-9.166 -4.121,-17.012m5.25,0.021c-0,6.871 0.796,11.441 2.4,13.696c1.604,2.266 3.587,3.395 5.941,3.395c2.35,0 4.338,-1.137 5.938,-3.404c1.604,-2.275 2.404,-6.833 2.404,-13.687c0,-6.875 -0.8,-11.442 -2.404,-13.7c-1.592,-2.267 -3.596,-3.392 -6,-3.392c-2.35,0 -4.238,1 -5.646,2.996c-1.758,2.533 -2.633,7.242 -2.633,14.096" style="fill:#1d1d1b;fill-rule:nonzero;"/><path d="M2546.54,1139.61l-0,-9.975l-18.142,-0l0,-4.725l19.079,-27.067l4.192,-0l-0,27.067l5.662,-0l0,4.725l-5.662,-0l-0,9.975l-5.129,-0Zm-0,-14.7l-0,-18.792l-13.096,18.792l13.096,-0Z" style="fill:#1d1d1b;fill-rule:nonzero;"/><path d="M2616.59,1123.22l-0,-4.9l17.675,-0l-0,15.479c-2.713,2.158 -5.513,3.791 -8.396,4.879c-2.892,1.092 -5.858,1.633 -8.888,1.633c-4.108,0 -7.829,-0.875 -11.183,-2.633c-3.346,-1.75 -5.883,-4.3 -7.583,-7.613c-1.709,-3.325 -2.563,-7.041 -2.563,-11.133c0,-4.062 0.846,-7.854 2.546,-11.383c1.7,-3.521 4.142,-6.134 7.329,-7.838c3.188,-1.708 6.863,-2.566 11.025,-2.566c3.013,-0 5.746,0.487 8.184,1.466c2.441,0.984 4.358,2.346 5.737,4.088c1.392,1.75 2.442,4.033 3.158,6.841l-4.983,1.363c-0.633,-2.121 -1.412,-3.792 -2.337,-5.017c-0.934,-1.216 -2.255,-2.187 -3.984,-2.916c-1.721,-0.73 -3.637,-1.1 -5.746,-1.1c-2.516,-0 -4.695,0.387 -6.541,1.158c-1.842,0.767 -3.317,1.779 -4.454,3.042c-1.13,1.254 -2.005,2.637 -2.625,4.133c-1.059,2.596 -1.592,5.396 -1.592,8.417c-0,3.733 0.637,6.858 1.912,9.375c1.284,2.508 3.15,4.375 5.588,5.587c2.45,1.217 5.046,1.829 7.8,1.829c2.392,0 4.721,-0.466 6.996,-1.391c2.279,-0.93 3.996,-1.913 5.175,-2.975l-0,-7.825l-12.25,-0Z" style="fill:#1d1d1b;fill-rule:nonzero;"/><path d="M2643.18,1109.34l5.833,-0l0,5.829l-5.833,-0l0,-5.829Zm0,24.437l5.833,0l0,5.833l-5.833,0l0,-5.833Z" style="fill:#1d1d1b;fill-rule:nonzero;"/><path d="M2672.98,1139.61l0,-9.975l-18.142,-0l0,-4.725l19.08,-27.067l4.195,-0l0,27.067l5.659,-0l-0,4.725l-5.659,-0l0,9.975l-5.133,-0Zm0,-14.7l0,-18.792l-13.096,18.792l13.096,-0Z" style="fill:#1d1d1b;fill-rule:nonzero;"/><path d="M2689.03,1128.53l5.129,-0.7c0.596,2.917 1.587,5.017 3,6.3c1.408,1.284 3.137,1.925 5.187,1.925c2.434,0 4.484,-0.837 6.138,-2.508c1.65,-1.671 2.479,-3.742 2.479,-6.212c-0,-2.355 -0.771,-4.296 -2.313,-5.834c-1.537,-1.525 -3.491,-2.296 -5.875,-2.296c-0.975,0 -2.179,0.196 -3.625,0.575l0.571,-4.491c0.342,0.041 0.625,0.058 0.829,0.058c2.196,0 4.163,-0.571 5.921,-1.708c1.75,-1.138 2.625,-2.892 2.625,-5.25c0,-1.879 -0.641,-3.434 -1.916,-4.671c-1.271,-1.229 -2.917,-1.846 -4.93,-1.846c-2.004,0 -3.662,0.633 -4.995,1.896c-1.334,1.262 -2.188,3.158 -2.567,5.687l-5.133,-0.933c0.629,-3.442 2.05,-6.112 4.275,-8.008c2.22,-1.9 4.991,-2.842 8.295,-2.842c2.271,0 4.375,0.488 6.288,1.471c1.925,0.971 3.396,2.304 4.404,3.983c1.025,1.692 1.529,3.484 1.529,5.379c0,1.796 -0.487,3.43 -1.446,4.909c-0.975,1.479 -2.416,2.654 -4.312,3.529c2.471,0.562 4.387,1.75 5.758,3.546c1.359,1.791 2.038,4.046 2.038,6.741c-0,3.642 -1.329,6.746 -3.984,9.284c-2.662,2.537 -6.029,3.8 -10.087,3.8c-3.667,-0 -6.713,-1.1 -9.133,-3.284c-2.43,-2.191 -3.809,-5.02 -4.15,-8.5" style="fill:#1d1d1b;fill-rule:nonzero;"/><path d="M2755.69,1139.61l0,-41.767l15.675,-0c3.188,-0 5.746,0.417 7.679,1.262c1.925,0.846 3.434,2.15 4.521,3.909c1.1,1.754 1.646,3.591 1.646,5.512c-0,1.779 -0.488,3.463 -1.454,5.038c-0.959,1.575 -2.417,2.85 -4.371,3.821c2.525,0.737 4.471,2.004 5.825,3.791c1.358,1.779 2.037,3.888 2.037,6.321c0,1.963 -0.416,3.779 -1.245,5.463c-0.825,1.683 -1.842,2.975 -3.059,3.887c-1.216,0.904 -2.741,1.596 -4.571,2.063c-1.837,0.466 -4.083,0.7 -6.745,0.7l-15.938,-0Zm5.542,-24.209l9.033,0c2.45,0 4.213,-0.166 5.271,-0.487c1.412,-0.417 2.467,-1.117 3.175,-2.088c0.712,-0.975 1.071,-2.187 1.071,-3.658c-0,-1.388 -0.329,-2.613 -1,-3.667c-0.659,-1.054 -1.617,-1.787 -2.85,-2.175c-1.234,-0.387 -3.35,-0.583 -6.346,-0.583l-8.354,-0l-0,12.658Zm-0,19.309l10.404,-0c1.792,-0 3.046,-0.067 3.771,-0.205c1.266,-0.225 2.333,-0.604 3.191,-1.137c0.855,-0.533 1.555,-1.313 2.109,-2.333c0.558,-1.021 0.825,-2.196 0.825,-3.53c-0,-1.566 -0.4,-2.916 -1.204,-4.075c-0.796,-1.154 -1.905,-1.962 -3.325,-2.429c-1.413,-0.466 -3.45,-0.7 -6.109,-0.7l-9.662,0l-0,14.409Z" style="fill:#1d1d1b;fill-rule:nonzero;"/><path d="M2795.59,1109.34l5.833,-0l-0,5.829l-5.833,-0l-0,-5.829Zm-0,24.437l5.833,0l-0,5.833l-5.833,0l-0,-5.833Z" style="fill:#1d1d1b;fill-rule:nonzero;"/><path d="M2809,1128.53l5.133,-0.7c0.596,2.917 1.584,5.017 2.996,6.3c1.409,1.284 3.138,1.925 5.192,1.925c2.429,0 4.479,-0.837 6.133,-2.508c1.65,-1.671 2.479,-3.742 2.479,-6.212c0,-2.355 -0.766,-4.296 -2.312,-5.834c-1.538,-1.525 -3.492,-2.296 -5.871,-2.296c-0.975,0 -2.179,0.196 -3.629,0.575l0.575,-4.491c0.337,0.041 0.621,0.058 0.825,0.058c2.2,0 4.162,-0.571 5.925,-1.708c1.746,-1.138 2.621,-2.892 2.621,-5.25c-0,-1.879 -0.642,-3.434 -1.917,-4.671c-1.271,-1.229 -2.917,-1.846 -4.925,-1.846c-2.008,0 -3.667,0.633 -4.996,1.896c-1.337,1.262 -2.191,3.158 -2.571,5.687l-5.133,-0.933c0.633,-3.442 2.054,-6.112 4.279,-8.008c2.217,-1.9 4.988,-2.842 8.296,-2.842c2.271,0 4.371,0.488 6.288,1.471c1.92,0.971 3.391,2.304 4.404,3.983c1.021,1.692 1.525,3.484 1.525,5.379c-0,1.796 -0.488,3.43 -1.446,4.909c-0.975,1.479 -2.417,2.654 -4.308,3.529c2.466,0.562 4.383,1.75 5.754,3.546c1.358,1.791 2.041,4.046 2.041,6.741c0,3.642 -1.329,6.746 -3.987,9.284c-2.663,2.537 -6.025,3.8 -10.088,3.8c-3.666,-0 -6.712,-1.1 -9.133,-3.284c-2.429,-2.191 -3.808,-5.02 -4.15,-8.5" style="fill:#1d1d1b;fill-rule:nonzero;"/><path d="M2841.74,1103.27l0,-4.9l27.009,0l-0,3.967c-2.654,2.829 -5.3,6.591 -7.904,11.287c-2.617,4.696 -4.625,9.525 -6.055,14.496c-1.025,3.492 -1.683,7.333 -1.966,11.492l-5.25,-0c0.058,-3.284 0.7,-7.263 1.933,-11.921c1.233,-4.667 2.996,-9.154 5.3,-13.483c2.3,-4.325 4.75,-7.971 7.346,-10.938l-20.413,0Z" style="fill:#1d1d1b;fill-rule:nonzero;"/><rect x="2354.45" y="1262.48" width="15.871" height="5.133" style="fill:#1d1d1b;"/><path d="M2409.09,1280.16l-0,-41.766l18.508,-0c3.729,-0 6.558,0.379 8.487,1.129c1.938,0.746 3.484,2.071 4.642,3.966c1.154,1.896 1.733,3.992 1.733,6.288c0,2.967 -0.966,5.467 -2.883,7.496c-1.912,2.033 -4.871,3.316 -8.875,3.871c1.471,0.7 2.579,1.4 3.333,2.079c1.617,1.479 3.142,3.333 4.571,5.562l7.221,11.375l-6.9,0l-5.521,-8.691c-1.604,-2.517 -2.937,-4.434 -3.975,-5.767c-1.05,-1.333 -1.987,-2.254 -2.812,-2.788c-0.817,-0.529 -1.659,-0.895 -2.517,-1.112c-0.625,-0.125 -1.642,-0.192 -3.075,-0.192l-6.396,0l0,18.55l-5.541,0Zm5.541,-23.333l11.863,-0c2.525,-0 4.491,-0.263 5.912,-0.788c1.421,-0.516 2.496,-1.35 3.225,-2.508c0.742,-1.15 1.113,-2.392 1.113,-3.746c-0,-1.971 -0.713,-3.604 -2.142,-4.879c-1.429,-1.275 -3.687,-1.904 -6.767,-1.904l-13.204,-0l0,13.825Z" style="fill:#1d1d1b;fill-rule:nonzero;"/><path d="M2451.86,1249.89l5.829,-0l0,5.833l-5.829,-0l0,-5.833Zm0,24.437l5.829,0l0,5.833l-5.829,0l0,-5.833Z" style="fill:#1d1d1b;fill-rule:nonzero;"/><path d="M2492.16,1275.26l-0,4.9l-27.65,0c-0.038,-1.233 0.166,-2.421 0.604,-3.567c0.712,-1.879 1.85,-3.733 3.412,-5.554c1.567,-1.816 3.8,-3.916 6.709,-6.296c4.52,-3.725 7.595,-6.67 9.2,-8.845c1.612,-2.18 2.42,-4.242 2.42,-6.188c0,-2.033 -0.729,-3.742 -2.191,-5.142c-1.454,-1.391 -3.359,-2.091 -5.704,-2.091c-2.484,-0 -4.463,0.741 -5.955,2.216c-1.483,1.471 -2.233,3.513 -2.254,6.125l-5.246,-0.525c0.355,-3.929 1.721,-6.92 4.071,-8.979c2.363,-2.062 5.521,-3.096 9.5,-3.096c4.004,0 7.184,1.109 9.517,3.338c2.342,2.225 3.508,4.983 3.508,8.271c0,1.671 -0.341,3.316 -1.029,4.929c-0.683,1.625 -1.817,3.325 -3.4,5.117c-1.596,1.775 -4.233,4.237 -7.908,7.345c-3.079,2.588 -5.063,4.338 -5.938,5.263c-0.875,0.921 -1.596,1.846 -2.171,2.779l20.505,0Z" style="fill:#1d1d1b;fill-rule:nonzero;"/><path d="M2505.61,1257.52c-2.129,-0.779 -3.704,-1.896 -4.734,-3.333c-1.02,-1.45 -1.537,-3.179 -1.537,-5.192c-0,-3.042 1.092,-5.592 3.267,-7.662c2.187,-2.071 5.087,-3.109 8.712,-3.109c3.633,0 6.571,1.059 8.788,3.179c2.216,2.117 3.325,4.692 3.325,7.738c-0,1.933 -0.509,3.625 -1.517,5.054c-1.013,1.438 -2.546,2.546 -4.617,3.325c2.554,0.838 4.492,2.179 5.821,4.046c1.333,1.858 2.008,4.071 2.008,6.658c0.001,3.567 -1.266,6.563 -3.787,8.996c-2.525,2.429 -5.842,3.646 -9.954,3.646c-4.113,-0 -7.425,-1.217 -9.954,-3.658c-2.517,-2.438 -3.784,-5.484 -3.784,-9.13c0,-2.712 0.692,-4.987 2.071,-6.816c1.384,-1.834 3.346,-3.079 5.892,-3.742m-1.021,-8.708c0,1.979 0.633,3.596 1.888,4.85c1.262,1.254 2.916,1.883 4.966,1.883c1.996,0 3.609,-0.621 4.859,-1.862c1.258,-1.246 1.879,-2.771 1.879,-4.584c-0,-1.883 -0.642,-3.471 -1.934,-4.754c-1.283,-1.283 -2.908,-1.925 -4.862,-1.925c-1.975,0 -3.6,0.633 -4.879,1.888c-1.275,1.254 -1.917,2.75 -1.917,4.504m-1.687,19.304c-0,1.471 0.337,2.879 1.016,4.25c0.684,1.362 1.713,2.421 3.092,3.171c1.371,0.746 2.85,1.129 4.417,1.129c2.466,-0 4.491,-0.792 6.075,-2.367c1.583,-1.575 2.37,-3.579 2.37,-6.008c0,-2.467 -0.812,-4.508 -2.437,-6.121c-1.638,-1.617 -3.696,-2.425 -6.179,-2.425c-2.429,0 -4.421,0.8 -5.996,2.392c-1.575,1.596 -2.358,3.587 -2.358,5.979" style="fill:#1d1d1b;fill-rule:nonzero;"/><path d="M2584.15,1263.77l-0,-4.9l17.675,0l-0,15.479c-2.713,2.159 -5.513,3.792 -8.396,4.88c-2.892,1.087 -5.858,1.633 -8.888,1.633c-4.108,-0 -7.829,-0.875 -11.183,-2.633c-3.346,-1.755 -5.883,-4.3 -7.583,-7.613c-1.709,-3.325 -2.563,-7.042 -2.563,-11.133c0,-4.063 0.842,-7.859 2.542,-11.384c1.704,-3.52 4.142,-6.137 7.333,-7.837c3.188,-1.713 6.863,-2.567 11.025,-2.567c3.013,0 5.746,0.488 8.184,1.467c2.441,0.983 4.358,2.346 5.737,4.087c1.392,1.746 2.442,4.034 3.158,6.842l-4.983,1.363c-0.633,-2.121 -1.412,-3.792 -2.337,-5.017c-0.934,-1.217 -2.255,-2.192 -3.984,-2.917c-1.721,-0.729 -3.637,-1.1 -5.746,-1.1c-2.516,0 -4.695,0.388 -6.541,1.154c-1.842,0.771 -3.317,1.784 -4.459,3.046c-1.125,1.254 -2,2.638 -2.62,4.129c-1.059,2.6 -1.592,5.4 -1.592,8.421c-0,3.734 0.637,6.859 1.912,9.375c1.284,2.509 3.15,4.375 5.588,5.588c2.45,1.216 5.046,1.829 7.8,1.829c2.392,-0 4.721,-0.467 6.996,-1.392c2.279,-0.933 3.995,-1.916 5.171,-2.975l-0,-7.825l-12.246,0Z" style="fill:#1d1d1b;fill-rule:nonzero;"/><path d="M2610.74,1249.89l5.833,-0l-0,5.833l-5.833,-0l-0,-5.833Zm-0,24.437l5.833,0l-0,5.833l-5.833,0l-0,-5.833Z" style="fill:#1d1d1b;fill-rule:nonzero;"/><path d="M2651.04,1275.26l0,4.9l-27.654,0c-0.038,-1.233 0.167,-2.421 0.608,-3.567c0.709,-1.879 1.846,-3.733 3.409,-5.554c1.566,-1.816 3.8,-3.916 6.712,-6.296c4.517,-3.725 7.592,-6.67 9.196,-8.845c1.612,-2.18 2.421,-4.242 2.421,-6.188c-0,-2.033 -0.729,-3.742 -2.188,-5.142c-1.458,-1.391 -3.362,-2.091 -5.708,-2.091c-2.479,-0 -4.463,0.741 -5.95,2.216c-1.488,1.471 -2.238,3.513 -2.254,6.125l-5.25,-0.525c0.358,-3.929 1.721,-6.92 4.071,-8.979c2.362,-2.062 5.52,-3.096 9.5,-3.096c4.004,0 7.183,1.109 9.52,3.338c2.342,2.225 3.505,4.983 3.505,8.271c-0,1.671 -0.338,3.316 -1.03,4.929c-0.679,1.625 -1.816,3.325 -3.4,5.117c-1.595,1.775 -4.233,4.237 -7.908,7.345c-3.079,2.588 -5.058,4.338 -5.933,5.263c-0.879,0.921 -1.596,1.846 -2.171,2.779l20.504,0Z" style="fill:#1d1d1b;fill-rule:nonzero;"/><path d="M2656.88,1243.82l-0,-4.9l27.004,-0l0,3.966c-2.65,2.83 -5.296,6.592 -7.9,11.288c-2.617,4.696 -4.629,9.525 -6.058,14.496c-1.021,3.491 -1.679,7.329 -1.967,11.491l-5.25,0c0.058,-3.283 0.7,-7.262 1.938,-11.92c1.233,-4.667 2.991,-9.159 5.3,-13.484c2.3,-4.325 4.75,-7.971 7.345,-10.937l-20.412,-0Z" style="fill:#1d1d1b;fill-rule:nonzero;"/><path d="M2723.25,1280.16l0,-41.766l15.675,-0c3.188,-0 5.746,0.416 7.679,1.262c1.925,0.846 3.434,2.15 4.521,3.908c1.1,1.75 1.646,3.588 1.646,5.513c-0,1.779 -0.488,3.462 -1.454,5.037c-0.959,1.575 -2.417,2.85 -4.371,3.821c2.525,0.738 4.471,2 5.825,3.792c1.358,1.779 2.037,3.887 2.037,6.321c0,1.962 -0.416,3.779 -1.245,5.462c-0.825,1.684 -1.846,2.975 -3.059,3.888c-1.216,0.904 -2.741,1.596 -4.571,2.062c-1.837,0.467 -4.083,0.7 -6.75,0.7l-15.933,0Zm5.542,-24.208l9.033,-0c2.45,-0 4.213,-0.167 5.271,-0.488c1.408,-0.416 2.467,-1.116 3.175,-2.087c0.712,-0.975 1.071,-2.188 1.071,-3.658c-0,-1.388 -0.329,-2.617 -1,-3.667c-0.659,-1.058 -1.617,-1.788 -2.85,-2.175c-1.234,-0.388 -3.35,-0.583 -6.346,-0.583l-8.354,-0l-0,12.658Zm-0,19.308l10.404,0c1.792,0 3.046,-0.066 3.771,-0.204c1.266,-0.225 2.333,-0.604 3.191,-1.142c0.854,-0.529 1.555,-1.308 2.109,-2.329c0.554,-1.021 0.825,-2.196 0.825,-3.529c-0,-1.567 -0.4,-2.917 -1.204,-4.075c-0.796,-1.154 -1.905,-1.962 -3.325,-2.429c-1.413,-0.467 -3.45,-0.7 -6.109,-0.7l-9.662,-0l-0,14.408Z" style="fill:#1d1d1b;fill-rule:nonzero;"/><path d="M2763.15,1249.89l5.833,-0l0,5.833l-5.833,-0l0,-5.833Zm0,24.437l5.833,0l0,5.833l-5.833,0l0,-5.833Z" style="fill:#1d1d1b;fill-rule:nonzero;"/><path d="M2803.45,1275.26l0,4.9l-27.65,0c-0.042,-1.233 0.162,-2.421 0.604,-3.567c0.709,-1.879 1.846,-3.733 3.413,-5.554c1.562,-1.816 3.8,-3.916 6.708,-6.296c4.517,-3.725 7.592,-6.67 9.196,-8.845c1.612,-2.18 2.421,-4.242 2.421,-6.188c-0,-2.033 -0.729,-3.742 -2.188,-5.142c-1.458,-1.391 -3.362,-2.091 -5.708,-2.091c-2.479,-0 -4.458,0.741 -5.95,2.216c-1.488,1.471 -2.238,3.513 -2.254,6.125l-5.246,-0.525c0.354,-3.929 1.717,-6.92 4.071,-8.979c2.358,-2.062 5.521,-3.096 9.496,-3.096c4.004,0 7.187,1.109 9.52,3.338c2.342,2.225 3.509,4.983 3.509,8.271c-0,1.671 -0.342,3.316 -1.034,4.929c-0.679,1.625 -1.812,3.325 -3.4,5.117c-1.595,1.775 -4.229,4.237 -7.904,7.345c-3.083,2.588 -5.062,4.338 -5.937,5.263c-0.875,0.921 -1.596,1.846 -2.171,2.779l20.504,0Z" style="fill:#1d1d1b;fill-rule:nonzero;"/><path d="M2809,1269.08l5.133,-0.7c0.596,2.917 1.584,5.017 2.996,6.3c1.409,1.283 3.138,1.925 5.192,1.925c2.429,0 4.479,-0.837 6.133,-2.508c1.65,-1.671 2.479,-3.742 2.479,-6.213c0,-2.354 -0.766,-4.296 -2.312,-5.833c-1.538,-1.525 -3.492,-2.296 -5.871,-2.296c-0.975,0 -2.179,0.196 -3.629,0.575l0.575,-4.492c0.337,0.042 0.621,0.059 0.825,0.059c2.2,-0 4.162,-0.575 5.925,-1.713c1.746,-1.137 2.621,-2.887 2.621,-5.246c-0,-1.879 -0.642,-3.433 -1.917,-4.67c-1.271,-1.23 -2.917,-1.846 -4.925,-1.846c-2.008,-0 -3.667,0.633 -4.996,1.896c-1.337,1.262 -2.191,3.158 -2.571,5.687l-5.133,-0.933c0.633,-3.442 2.054,-6.117 4.279,-8.013c2.217,-1.896 4.988,-2.837 8.296,-2.837c2.271,-0 4.371,0.487 6.288,1.466c1.92,0.975 3.391,2.309 4.404,3.988c1.021,1.692 1.525,3.479 1.525,5.375c-0,1.8 -0.488,3.433 -1.446,4.912c-0.975,1.48 -2.417,2.655 -4.308,3.53c2.466,0.562 4.383,1.75 5.754,3.545c1.358,1.792 2.041,4.046 2.041,6.742c0,3.642 -1.329,6.746 -3.987,9.283c-2.663,2.538 -6.025,3.8 -10.088,3.8c-3.666,0 -6.712,-1.1 -9.133,-3.287c-2.429,-2.188 -3.808,-5.017 -4.15,-8.496" style="fill:#1d1d1b;fill-rule:nonzero;"/><rect x="89.642" y="508.267" width="1743.66" height="1415.2" style="fill:none;"/><text x="182.755px" y="260.558px" style="font-family:'TwCenMT-Regular', 'Tw Cen MT', sans-serif;font-size:83.333px;fill:#1d1d1b;">Logo- w<tspan x="448.8px 490.465px " y="260.558px 260.558px ">er</tspan>sja AKRONIMICZNA</text><text x="1985.51px" y="260.558px" style="font-family:'TwCenMT-Regular', 'Tw Cen MT', sans-serif;font-size:83.333px;fill:#1d1d1b;">K<tspan x="2029.82px 2071.48px " y="260.558px 260.558px ">ol</tspan>ory r<tspan x="2294.91px 2350.5px 2389.68px 2443.59px " y="260.558px 260.558px 260.558px 260.558px ">mowe</tspan></text></svg>