<?xml version="1.0" encoding="UTF-8" standalone="no"?><!DOCTYPE svg PUBLIC "-//W3C//DTD SVG 1.1//EN" "http://www.w3.org/Graphics/SVG/1.1/DTD/svg11.dtd"><svg width="100%" height="100%" viewBox="0 0 1049 467" version="1.1" xmlns="http://www.w3.org/2000/svg" xmlns:xlink="http://www.w3.org/1999/xlink" xml:space="preserve" xmlns:serif="http://www.serif.com/" style="fill-rule:evenodd;clip-rule:evenodd;stroke-linejoin:round;stroke-miterlimit:2;"><path d="M81.652,172.298c-8.096,-17.758 5.608,-30.433 13.387,-34.417c20.417,-10.462 34.634,10.638 39.079,19.105c6.68,12.825 12.321,27.154 17.684,40.691c7.975,20.088 25.033,50.146 30.575,63.046c-0.504,-22.029 4.737,-105.729 5.671,-115.329c1.108,-11.229 -0.592,-43.404 3.8,-53.217c2.97,-6.591 13.845,-15.754 22.908,-15.066c23.162,1.175 31.787,19.183 29.292,37.337c-7.984,58.229 -11.763,102.008 -14.967,156.496c-1.108,18.629 -15.017,31.829 -24.675,36.433c-20.679,9.867 -46.8,10.338 -57.375,-6.071c-10.254,-15.875 -19.513,-32.483 -27.938,-49.395c-13.083,-26.246 -25.3,-52.917 -37.441,-79.613" style="fill:#5957a2;"/><path d="M265.425,18.351c-118.963,-47.617 -294.167,-4.996 -261.417,156.396c5.354,26.487 26.196,109.275 52.888,101.479c52.408,-15.3 -54.288,-145.442 37.225,-203.771c59.195,-37.725 135.316,-28.529 181.67,17.259c70.438,69.583 -29.02,163.125 0.367,192.512c41.367,41.379 79.183,-86.142 81.113,-109.804c5.387,-66.113 -38.159,-132.588 -91.846,-154.071" style="fill:#817dbb;"/><path d="M220.088,327.26c-28.23,8.088 -56.325,16.642 -84.521,24.913c-14.138,4.133 -10.663,2.741 -24.684,7.241c-8.112,2.605 -17.041,28.767 -11.516,36.684c2.712,3.875 10.929,6.416 16.1,5.675c26.121,-3.825 34.225,-4.046 60.246,-8.504c30.558,-5.25 62.725,-5.821 84.975,-33.017c6.112,-7.471 4.916,-26.433 -3.321,-30.754c-2.117,-7.863 -25.746,-5.55 -37.279,-2.238" style="fill:#817dbb;"/><path d="M198.733,406.646c-28.279,7.909 -11.766,2.671 -39.991,10.75c-14.159,4.038 -10.675,2.705 -24.721,7.063c-8.146,2.517 -17.817,25.629 -12.583,32.358c2.57,3.304 5.241,13.454 31.208,8.779c30.496,-5.525 62.437,-7.004 85.346,-31.404c6.3,-6.696 5.687,-23.216 -2.338,-26.733c-1.846,-6.8 -25.375,-4.042 -36.921,-0.813" style="fill:#817dbb;"/><path d="M452.216,86.755c0,-2.054 1.85,-3.7 3.905,-3.7l1.645,0c2.055,0 3.492,0 6.167,3.084l86.288,100.058l0.412,-0l0,-97.183c0,-2.055 1.646,-3.905 3.908,-3.905l13.146,0c2.05,0 3.904,1.85 3.904,3.905l0,138.275c0,2.054 -1.854,3.7 -3.904,3.7l-1.85,-0c-2.054,-0 -3.491,-0 -5.954,-2.88l-86.5,-103.137l-0.417,-0l0,100.058c0,2.054 -1.641,3.904 -3.9,3.904l-12.945,0c-2.055,0 -3.905,-1.85 -3.905,-3.904l0,-138.275Z" style="fill:#575756;fill-rule:nonzero;"/><path d="M673.908,211.057c29.38,0 53.417,-24.45 53.417,-53.829c0,-29.175 -24.037,-54.242 -53.417,-54.242c-29.17,0 -53.212,25.067 -53.212,54.242c-0,29.379 24.042,53.829 53.212,53.829m0,-128.004c41.088,0 73.967,33.083 73.967,74.175c0,41.088 -32.879,73.758 -73.967,73.758c-41.091,0 -73.758,-32.67 -73.758,-73.758c0,-41.092 32.667,-74.175 73.758,-74.175" style="fill:#575756;fill-rule:nonzero;"/><path d="M763.081,90.041c-0.821,-2.871 0.821,-4.929 3.7,-4.929l13.762,-0c1.646,-0 3.288,1.437 3.7,2.879l24.863,94.304l0.821,0l33.487,-96.979c0.413,-1.229 1.85,-2.262 3.496,-2.262l3.696,-0c1.637,-0 3.079,1.033 3.496,2.262l33.896,96.979l0.825,0l24.445,-94.304c0.417,-1.442 2.055,-2.879 3.7,-2.879l13.763,-0c2.883,-0 4.525,2.058 3.704,4.929l-38.837,138.071c-0.409,1.642 -2.05,2.875 -3.692,2.875l-3.292,-0c-1.437,-0 -3.083,-1.029 -3.491,-2.258l-36.163,-102.113l-1.025,0l-35.546,102.113c-0.412,1.229 -2.054,2.258 -3.496,2.258l-3.283,-0c-1.642,-0 -3.287,-1.233 -3.7,-2.875l-38.829,-138.071Z" style="fill:#575756;fill-rule:nonzero;"/><path d="M958.471,89.016c-0,-2.059 1.65,-3.905 3.904,-3.905l82.187,0c2.259,0 3.904,1.846 3.904,3.905l0,11.504c0,2.058 -1.645,3.904 -3.904,3.904l-64.925,-0l0,41.912l54.859,0c2.05,0 3.904,1.855 3.904,3.905l-0,11.508c-0,2.258 -1.854,3.9 -3.904,3.9l-54.859,-0l0,44.175l64.925,-0c2.259,-0 3.904,1.85 3.904,3.904l0,11.3c0,2.058 -1.645,3.904 -3.904,3.904l-82.187,0c-2.254,0 -3.904,-1.846 -3.904,-3.904l-0,-136.012Z" style="fill:#575756;fill-rule:nonzero;"/><path d="M452.888,280.324c0,-2.054 1.65,-3.904 3.904,-3.904l82.179,-0c2.263,-0 3.913,1.85 3.913,3.904l-0,11.508c-0,2.054 -1.65,3.9 -3.913,3.9l-64.916,0l-0,47.459l54.85,-0c2.058,-0 3.912,1.854 3.912,3.904l0,11.3c0,2.058 -1.854,3.908 -3.912,3.908l-54.85,0l-0,54.038c-0,2.054 -1.85,3.9 -3.904,3.9l-13.359,-0c-2.254,-0 -3.904,-1.846 -3.904,-3.9l0,-136.017Z" style="fill:#575756;fill-rule:nonzero;"/><path d="M567.333,280.324c0,-2.054 1.85,-3.904 3.904,-3.904l13.563,-0c2.054,-0 3.904,1.85 3.904,3.904l-0,136.017c-0,2.054 -1.85,3.9 -3.904,3.9l-13.563,-0c-2.054,-0 -3.904,-1.846 -3.904,-3.9l0,-136.017Z" style="fill:#575756;fill-rule:nonzero;"/><path d="M691.018,402.366c29.384,0 53.417,-24.45 53.417,-53.833c0,-29.171 -24.033,-54.238 -53.417,-54.238c-29.175,0 -53.212,25.067 -53.212,54.238c-0,29.383 24.037,53.833 53.212,53.833m0,-128.004c41.092,-0 73.967,33.083 73.967,74.171c0,41.091 -32.875,73.762 -73.967,73.762c-41.087,0 -73.754,-32.671 -73.754,-73.762c0,-41.088 32.667,-74.171 73.754,-74.171" style="fill:#575756;fill-rule:nonzero;"/></svg>